<?xml version="1.0" encoding="UTF-8"?>
<svg width="161px" height="70px" viewBox="0 0 161 70" version="1.1" xmlns="http://www.w3.org/2000/svg" xmlns:xlink="http://www.w3.org/1999/xlink">
    <title>Palforzia_Pathway_Logo</title>
    <g id="Symbols" stroke="none" stroke-width="1" fill="none" fill-rule="evenodd">
        <g id="Desktop/9-Access-and-Reimbursement/Card-1" transform="translate(-853.000000, -61.000000)">
            <g id="Palforzia-Pathway-TM-Desktop-Callout" transform="translate(758.000000, 0.000000)">
                <g id="Logo/Palforzia-Pathway" transform="translate(95.000000, 61.000000)">
                    <g id="Palforzia_Pathway_Logo_TM_4C_FPO">
                        <path d="M19.0155636,36.8235294 L29.1029455,36.8235294 C34.1846909,36.8235294 36.3040364,39.2117647 36.3040364,43.0294118 C36.3040364,49.8294118 32.0302182,53.3882353 25.9239273,53.3882353 L20.4909091,53.3882353 L18.8809091,62.5352941 L14.5192727,62.5352941 L19.0155636,36.8235294 Z M21.1349091,49.5705882 L26.4332727,49.5705882 C29.1029455,49.5705882 31.7726182,48.1352941 31.7726182,43.7647059 C31.7726182,41.8176471 30.7890545,40.6470588 28.3008727,40.6470588 L22.6688,40.6470588 L21.1349091,49.5705882 Z" id="Shape" fill="#5FC5BF" fill-rule="nonzero"></path>
                        <path d="M54.7458545,43.6176471 L52.3689091,56.9882353 C52.1113091,58.3470588 52.2576727,59.1941176 53.5398182,59.1941176 C54.0966568,59.1756778 54.649149,59.0887556 55.1849455,58.9352941 L54.5994909,62.2411765 C53.5461896,62.6408376 52.4345545,62.8634257 51.3092364,62.9 C49.588,62.9 48.5693091,62.1294118 48.2356,60.5176471 C46.7332336,62.1176042 44.6154558,62.9863278 42.4278909,62.9 C38.2184727,62.9 35.8064,60.1823529 36.6494545,55.3705882 L37.4690909,50.5882353 C38.3062909,45.7823529 41.1223273,43.2823529 45.3258909,43.2823529 C47.7379636,43.2823529 49.6406909,44.0882353 50.5949818,45.7058824 L51.5492727,43.6470588 L54.7458545,43.6176471 Z M40.6949455,55.6647059 C40.2909818,57.9823529 41.6785091,59.3764706 43.8037091,59.3764706 C46.2439807,59.4144026 48.3289906,57.6173205 48.6629818,55.1882353 L49.4650545,50.6705882 C49.9041455,48.2823529 48.2590182,46.7764706 45.8118182,46.7764706 C43.3646182,46.7764706 42.0473455,47.9882353 41.6433818,50.2705882 L40.6949455,55.6647059 Z" id="Shape" fill="#5FC5BF" fill-rule="nonzero"></path>
                        <path d="M63.6916,55.8823529 C63.1412727,59.0058824 64.0545818,59.7764706 68.3342545,59.1529412 L67.7839273,62.5294118 C59.8510182,63.9588235 58.7210909,60.9882353 59.6344,55.7705882 L61.1331636,47.1411765 L57.8429091,47.1411765 L58.4634909,43.6117647 L61.7888727,43.6117647 L62.7782909,37.9235294 L67.0521091,36.7117647 L65.8460727,43.6117647 L71.0741818,43.6117647 L70.4536,47.1411765 L65.2254909,47.1411765 L63.6916,55.8823529 Z" id="Path" fill="#5FC5BF" fill-rule="nonzero"></path>
                        <path d="M82.7364364,62.5352941 L84.8557818,50.2294118 C85.2597455,47.8411765 83.8312364,46.7764706 81.7470182,46.7764706 C79.3111418,46.6998343 77.2055285,48.4712817 76.8526182,50.8941176 L74.8386545,62.5352941 L70.7814545,62.5352941 L75.5353455,35.3588235 L79.6218182,35.3588235 L77.9415636,45.0176471 C79.3745355,43.8196414 81.1952739,43.1917056 83.0584364,43.2529412 C87.2268727,43.2529412 89.7443273,45.6411765 88.9129818,50.4882353 L86.8287636,62.5352941 L82.7364364,62.5352941 Z" id="Path" fill="#5FC5BF" fill-rule="nonzero"></path>
                        <polygon id="Path" fill="#5FC5BF" fill-rule="nonzero" points="94.6153091 62.5352941 92.3847273 43.6176471 96.3716727 43.6176471 97.8001818 57.5411765 104.011855 43.6176471 108.069055 43.6176471 109.421455 57.5411765 115.709236 43.6176471 119.877673 43.6176471 111.031455 62.5352941 106.459055 62.5352941 105.071527 49.7529412 99.2169818 62.5352941"></polygon>
                        <path d="M137.845273,43.6176471 L135.468327,56.9882353 C135.216582,58.3470588 135.362945,59.1941176 136.639236,59.1941176 C137.196148,59.1764529 137.748734,59.0895159 138.284364,58.9352941 L137.698909,62.2411765 C136.645904,62.6418773 135.534095,62.8645002 134.408655,62.9 C132.693273,62.9 131.668727,62.1294118 131.340873,60.5176471 C129.834485,62.1152812 127.71607,62.9833909 125.527309,62.9 C121.323745,62.9 118.911673,60.1823529 119.754727,55.3705882 L120.603636,50.5882353 C121.446691,45.7823529 124.262727,43.2823529 128.466291,43.2823529 C130.878364,43.2823529 132.775236,44.0882353 133.735382,45.7058824 L134.683818,43.6470588 L137.845273,43.6176471 Z M123.794364,55.6647059 C123.396255,57.9823529 124.783782,59.3764706 126.903127,59.3764706 C129.345615,59.4174062 131.434001,57.61958 131.768255,55.1882353 L132.570327,50.6705882 C133.009418,48.2823529 131.364291,46.7764706 128.917091,46.7764706 C126.469891,46.7764706 125.146764,47.9882353 124.748655,50.2705882 L123.794364,55.6647059 Z" id="Shape" fill="#5FC5BF" fill-rule="nonzero"></path>
                        <polygon id="Path" fill="#5FC5BF" fill-rule="nonzero" points="140.872073 69.8823529 144.859018 62.5352941 144.607273 62.5352941 141.024291 43.6176471 145.1576 43.6176471 147.716036 57.9823529 155.280109 43.6176471 159.594909 43.6176471 145.444473 69.8823529"></polygon>
                        <ellipse id="Oval" fill="#4F2984" fill-rule="nonzero" cx="72.9359273" cy="3.37647059" rx="1.73294545" ry="1.74117647"></ellipse>
                        <ellipse id="Oval" fill="#5172B8" fill-rule="nonzero" cx="80.7634545" cy="3.38235294" rx="1.90272727" ry="1.91176471"></ellipse>
                        <ellipse id="Oval" fill="#567EBF" fill-rule="nonzero" cx="89.7677455" cy="3.38823529" rx="2.35938182" ry="2.37058824"></ellipse>
                        <ellipse id="Oval" fill="#598FAB" fill-rule="nonzero" cx="99.5155636" cy="3.39411765" rx="2.7048" ry="2.71764706"></ellipse>
                        <ellipse id="Oval" fill="#5CB0B7" fill-rule="nonzero" cx="109.848836" cy="3.36470588" rx="2.91556364" ry="2.92941176"></ellipse>
                        <ellipse id="Oval" fill="#5FC5BF" fill-rule="nonzero" cx="121.317891" cy="3.40588235" rx="3.03850909" ry="3.05294118"></ellipse>
                        <path d="M4.93538182,3.02352941 L15.2218182,3.02352941 C20.4030909,3.02352941 22.5692727,5.45882353 22.5692727,9.35882353 C22.5692727,16.2882353 18.2017818,19.9470588 11.9725455,19.9470588 L6.44,19.9470588 L4.80072727,29.2823529 L0.351272727,29.2823529 L4.93538182,3.02352941 Z M7.10156364,16.0294118 L12.5111636,16.0294118 C15.2335273,16.0294118 17.9558909,14.5647059 17.9558909,10.1058824 C17.9558909,8.12352941 16.9489091,6.92352941 14.4431636,6.92352941 L8.66472727,6.92352941 L7.10156364,16.0294118 Z" id="Shape" fill="#4F2984" fill-rule="nonzero"></path>
                        <path d="M40.4432,9.95882353 L38.0194182,23.6 C37.7559636,24.9823529 37.9081818,25.8470588 39.1903273,25.8470588 C39.7591991,25.8294846 40.3236563,25.7405605 40.8705818,25.5823529 L40.2851273,28.9588235 C39.2088642,29.3650395 38.0736952,29.591562 36.9246182,29.6294118 C35.1682545,29.6294118 34.1261455,28.8470588 33.7924364,27.1941176 C32.2597825,28.8304334 30.096371,29.7187912 27.8617818,29.6294118 C23.5762545,29.6294118 21.1114909,26.8588235 21.9721091,21.9470588 L22.8327273,17.0588235 C23.6933455,12.1470588 26.5620727,9.6 30.8534545,9.6 C33.3123636,9.6 35.2560727,10.4235294 36.2630545,12.0705882 L37.2290545,9.97647059 L40.4432,9.95882353 Z M26.082,22.2470588 C25.6721818,24.6 27.0889818,26.0352941 29.2551636,26.0352941 C31.7441848,26.0739543 33.8713145,24.2420402 34.2139636,21.7647059 L35.0336,17.1529412 C35.4844,14.7176471 33.8041455,13.1823529 31.3042545,13.1823529 C28.8043636,13.1823529 27.4636727,14.4176471 27.0538545,16.7117647 L26.082,22.2470588 Z" id="Shape" fill="#4F2984" fill-rule="nonzero"></path>
                        <polygon id="Path" fill="#4F2984" fill-rule="nonzero" points="47.3632727 1.52352941 51.52 1.52352941 46.6724364 29.2588235 42.5332727 29.2588235"></polygon>
                        <path d="M60.1847273,9.95882353 L65.5182182,9.95882353 L64.8800727,13.5294118 L59.5465818,13.5294118 L55.4835273,36.7294118 L51.3443636,36.7294118 L55.3722909,13.5294118 L51.6429455,13.5294118 L52.2752364,9.93529412 L56.0045818,9.93529412 L56.2680364,8.39411765 C57.2340364,3.03529412 59.3650909,0.158823529 67.0111273,1.42352941 L66.4256727,4.83529412 C62.2104,4.42352941 61.0512,5.02352941 60.4950182,8.21176471 L60.1847273,9.95882353 Z" id="Path" fill="#4F2984" fill-rule="nonzero"></path>
                        <path d="M81.0444727,22.1 C80.1838545,27.0470588 76.7882182,29.6294118 71.8294182,29.6294118 C66.8706182,29.6294118 63.8496727,27.1235294 64.7044364,22.1764706 L65.6001818,17.0588235 C66.4608,12.1117647 69.8505818,9.6 74.8152364,9.6 C79.7798909,9.6 82.7949818,12.0941176 81.9636364,17.0588235 L81.0444727,22.1 Z M77.8654545,16.7411765 C78.3104,14.3058824 76.9287273,13.2117647 74.5049455,13.2117647 C72.0811636,13.2117647 70.2896727,14.3882353 69.8213091,16.7411765 L68.8143273,22.4352941 C68.3635273,24.8705882 69.7861818,26.0352941 72.1689818,26.0352941 C74.5517818,26.0352941 76.4252364,24.8 76.8526182,22.4 L77.8654545,16.7411765 Z" id="Shape" fill="#4F2984" fill-rule="nonzero"></path>
                        <path d="M86.4599273,29.2588235 L82.3149091,29.2588235 L85.6754182,9.95882353 L88.8427273,9.95882353 L89.1061818,12.2411765 C91.1962545,10.1058824 92.4491273,9.95882353 97.1444727,9.95882353 L96.4712,13.5294118 C92.0393091,13.5294118 89.0652,14.2823529 88.5851273,17.0588235 L86.4599273,29.2588235 Z" id="Path" fill="#4F2984" fill-rule="nonzero"></path>
                        <polygon id="Path" fill="#4F2984" fill-rule="nonzero" points="109.339491 13.5294118 98.9710909 13.5294118 99.6033818 9.93529412 115.123782 9.93529412 114.485636 13.5294118 102.027164 25.6588235 112.360436 25.6588235 111.774982 29.2588235 96.2487273 29.2588235 96.8810182 25.6588235"></polygon>
                        <polygon id="Path" fill="#4F2984" fill-rule="nonzero" points="118.291091 9.95882353 122.471236 9.95882353 119.0756 29.2588235 114.936436 29.2588235"></polygon>
                        <path d="M141.276036,9.95882353 L138.852255,23.6 C138.5888,24.9823529 138.741018,25.8470588 140.023164,25.8470588 C140.590109,25.829426 141.152622,25.7404983 141.697564,25.5823529 L141.112109,28.9588235 C140.037959,29.365331 138.904666,29.5918738 137.757455,29.6294118 C136.001091,29.6294118 134.958982,28.8470588 134.625273,27.1941176 C133.091725,28.8291253 130.928934,29.7172285 128.694618,29.6294118 C124.403236,29.6294118 121.944327,26.8588235 122.799091,21.9470588 L123.671418,17.0588235 C124.526182,12.1470588 127.400764,9.6 131.686291,9.6 C134.151055,9.6 136.088909,10.4235294 137.095891,12.0705882 L138.067745,9.97647059 L141.276036,9.95882353 Z M126.914836,22.2470588 C126.505018,24.6 127.921818,26.0352941 130.088,26.0352941 C132.577021,26.0739543 134.704151,24.2420402 135.0468,21.7647059 L135.866436,17.1529412 C136.311382,14.7176471 134.636982,13.1823529 132.137091,13.1823529 C129.6372,13.1823529 128.296509,14.4176471 127.886691,16.7117647 L126.914836,22.2470588 Z" id="Shape" fill="#4F2984" fill-rule="nonzero"></path>
                        <polygon id="Path" fill="#5FC5BF" fill-rule="nonzero" points="153.822327 58.6470588 156.843273 58.6470588 156.843273 59.0470588 155.561127 59.0470588 155.285964 62.5352941 154.829309 62.5352941 155.098618 59.0470588 153.822327 59.0470588"></polygon>
                        <polygon id="Path" fill="#5FC5BF" fill-rule="nonzero" points="159.993018 59.5529412 158.599636 61.8235294 157.569236 59.5529412 157.335055 62.5352941 156.901818 62.5352941 157.206255 58.6470588 157.6512 58.6470588 158.693309 60.9470588 160.104255 58.6470588 160.5492 58.6470588 160.238909 62.5352941 159.788109 62.5352941"></polygon>
                        <rect id="Rectangle" x="150.696" y="58.6470588" width="3.21414545" height="3.22941176"></rect>
                    </g>
                </g>
            </g>
        </g>
    </g>
</svg>