<?xml version="1.0" encoding="UTF-8"?>
<svg width="540px" height="496px" viewBox="0 0 540 496" version="1.1" xmlns="http://www.w3.org/2000/svg" xmlns:xlink="http://www.w3.org/1999/xlink">
    <title>Key_Studies_PALISADES_Meaningful_Desensitization_v08</title>
    <g id="Symbols" stroke="none" stroke-width="1" fill="none" fill-rule="evenodd">
        <g id="Chart/Key_Studies_PALISADES_Meaningful_Desensitization" fill-rule="nonzero">
            <g id="Key_Studies_PALISADES_Meaningful_Desensitization_v08">
                <circle id="Oval" fill="#4F5DBF" cx="291.23" cy="247.85" r="247.85"></circle>
                <path d="M200.77,124 L199.25,119.16 L192.89,119.16 L191.42,124 L188.3,124 L194.55,105.06 L197.64,105.06 L204,124 L200.77,124 Z M196.01,109 L193.68,116.59 L198.43,116.59 L196.01,109 Z" id="Shape" fill="#FFFFFF"></path>
                <path d="M211.18,124.24 C207.8,124.24 205.58,122.11 205.58,118.81 L205.58,115.94 C205.517485,114.439159 206.094773,112.982284 207.168327,111.931612 C208.241882,110.88094 209.710854,110.335169 211.21,110.43 C214.21,110.43 216.38,112.13 216.38,115.29 L216.38,115.37 L213.88,115.37 L213.88,115 C213.875236,114.325569 213.585736,113.684546 213.08291,113.23505 C212.580084,112.785554 211.910746,112.569434 211.24,112.64 C210.441393,112.599625 209.664299,112.906333 209.10854,113.481256 C208.552782,114.056178 208.272585,114.84322 208.34,115.64 L208.34,118.85 C208.239847,119.660653 208.506587,120.47372 209.067489,121.067502 C209.628391,121.661285 210.424962,121.973861 211.24,121.92 C211.913114,121.978444 212.580171,121.754004 213.081052,121.300555 C213.581933,120.847106 213.871411,120.205592 213.88,119.53 L213.88,119.19 L216.38,119.19 L216.38,119.3 C216.38,122.54 214.13,124.24 211.18,124.24 Z" id="Path" fill="#FFFFFF"></path>
                <path d="M227.42,124 L227.42,115 C227.42,113.44 226.63,112.56 225.25,112.56 C223.36,112.56 222.07,115.06 222.07,116.62 L222.07,124 L219.23,124 L219.23,105.08 L222.07,105.08 L222.07,113.53 C222.733707,111.687828 224.472035,110.451861 226.43,110.43 C228.82,110.43 230.29,112.28 230.29,114.89 L230.29,124 L227.42,124 Z" id="Path" fill="#FFFFFF"></path>
                <path d="M233.75,124 L233.75,110.71 L236.62,110.71 L236.62,124 L233.75,124 Z M233.83,108.39 L233.83,105.69 L236.53,105.69 L236.53,108.39 L233.83,108.39 Z" id="Shape" fill="#FFFFFF"></path>
                <path d="M245.34,124.24 C241.97,124.24 239.77,122.17 239.77,118.9 L239.77,115.9 C239.67864,114.417767 240.23408,112.968675 241.292762,111.927255 C242.351443,110.885835 243.809469,110.354289 245.29,110.47 C248.75,110.47 250.66,112.68 250.66,115.93 L250.66,117.57 L242.53,117.57 L242.53,119.39 C242.517849,120.162007 242.841739,120.901201 243.417543,121.415586 C243.993347,121.929971 244.764243,122.168785 245.53,122.07 C247.25,122.07 248.18,121.07 248.18,119.93 L248.18,119.65 L250.68,119.65 L250.68,119.71 C250.66,122.54 248.3,124.24 245.34,124.24 Z M248.07,115.24 C247.947629,113.801166 246.744028,112.695584 245.3,112.695584 C243.855972,112.695584 242.652371,113.801166 242.53,115.24 L242.53,116.1 L248.07,116.1 L248.07,115.24 Z" id="Shape" fill="#FFFFFF"></path>
                <polygon id="Path" fill="#FFFFFF" points="259.47 124 256.88 124 252.1 110.69 255.1 110.69 257.32 117.86 258.32 121.01 259.32 117.86 261.51 110.69 264.41 110.69"></polygon>
                <path d="M266.37,124 L266.37,110.71 L269.24,110.71 L269.24,124 L266.37,124 Z M266.45,108.39 L266.45,105.69 L269.15,105.69 L269.15,108.39 L266.45,108.39 Z" id="Shape" fill="#FFFFFF"></path>
                <path d="M281.17,124 L281.17,115 C281.17,113.44 280.38,112.56 278.97,112.56 C277.09,112.56 275.71,115.12 275.71,116.68 L275.71,124 L272.84,124 L272.84,110.71 L275.26,110.71 L275.4,114.15 C276.5,111.54 278.02,110.43 279.96,110.43 C282.6,110.43 284.04,112.28 284.04,114.89 L284.04,124 L281.17,124 Z" id="Path" fill="#FFFFFF"></path>
                <path d="M297.49,112.25 C297.121702,112.283543 296.751316,112.214312 296.42,112.05 C297.228139,112.66677 297.70461,113.623405 297.71,114.64 L297.71,114.83 C297.71,117.25 295.71,118.9 292.54,118.9 C291.988582,118.880834 291.439863,118.813917 290.9,118.7 C289.9,118.7 289.3,119.33 289.3,119.84 C289.3,120.55 290.12,121 293.35,121 C297.35,121 298.84,122.4 298.84,124.24 L298.84,124.47 C298.84,126.55 296.64,128.65 292.51,128.65 C289.1,128.65 286.51,127.37 286.51,125.38 L286.51,125.24 C286.51,124.1 287.39,123.05 289.51,122.65 C287.74,122.28 287,121.46 287,120.52 C287.203025,119.226005 288.264692,118.238695 289.57,118.13 C288.240944,117.5402 287.402395,116.203268 287.45,114.75 L287.45,114.66 C287.45,112.28 289.73,110.43 292.58,110.43 C293.478714,110.434314 294.370606,110.586341 295.22,110.88 C296.66,111.02 296.99,110.2 296.99,109.09 L298.99,109.09 C299.084135,109.520281 299.131079,109.959543 299.130018,110.4 C299.09,111.85 298.19,112.25 297.49,112.25 Z M296.16,124.56 C296.16,123.62 295.46,123.05 292.99,123.05 C290.17,123.05 289.13,123.82 289.13,124.7 L289.13,124.84 C289.13,125.75 290.13,126.49 292.56,126.49 C294.99,126.49 296.16,125.61 296.16,124.67 L296.16,124.56 Z M295.16,114.64 C294.980194,113.350257 293.877216,112.390382 292.575,112.390382 C291.272784,112.390382 290.169806,113.350257 289.99,114.64 L289.99,114.72 C290.169806,116.009743 291.272784,116.969618 292.575,116.969618 C293.877216,116.969618 294.980194,116.009743 295.16,114.72 L295.16,114.64 Z" id="Shape" fill="#FFFFFF"></path>
                <path d="M313.05,124.56 C309.51,124.56 307.05,122.25 307.05,119.27 L307.05,118.07 L310,118.07 L310,118.76 C310,120.89 311.07,122 313.2,122 C315.33,122 316.36,120.78 316.36,119 L316.36,118.09 C316.36,116.7 315.54,115.53 313.09,115.53 L311.52,115.53 L311.52,113.17 L313.09,113.17 C315.43,113.17 316.36,112.04 316.36,110.62 L316.36,110.02 C316.36,108.23 315.29,107.02 313.2,107.02 C312.319414,106.929255 311.445205,107.242889 310.823139,107.87273 C310.201073,108.502572 309.898323,109.380609 310,110.26 L310,110.66 L307.1,110.66 L307.1,109.75 C307.1,106.75 309.55,104.46 313.1,104.46 C317.1,104.46 319.26,106.77 319.26,109.72 L319.26,110.21 C319.367688,112.195131 317.938604,113.932619 315.97,114.21 C317.892854,114.465183 319.312685,116.131003 319.26,118.07 L319.26,119.21 C319.21,122.17 317,124.56 313.05,124.56 Z" id="Path" fill="#FFFFFF"></path>
                <path d="M328.81,124.56 C324.5,124.56 321.94,121.63 321.94,117.96 L321.94,111.14 C321.94,107.44 324.5,104.54 328.81,104.54 C333.12,104.54 335.65,107.44 335.65,111.14 L335.65,118 C335.65,121.63 333.11,124.56 328.81,124.56 Z M332.69,111 C332.69,108.857135 330.952865,107.12 328.81,107.12 C326.667135,107.12 324.93,108.857135 324.93,111 L324.93,118 C324.93,120.142865 326.667135,121.88 328.81,121.88 C330.952865,121.88 332.69,120.142865 332.69,118 L332.69,111 Z" id="Shape" fill="#FFFFFF"></path>
                <path d="M345.55,124.56 C341.25,124.56 338.69,121.63 338.69,117.96 L338.69,111.14 C338.69,107.44 341.25,104.54 345.55,104.54 C349.85,104.54 352.39,107.44 352.39,111.14 L352.39,118 C352.39,121.63 349.86,124.56 345.55,124.56 Z M349.44,111 C349.334992,108.930909 347.626754,107.307167 345.555,107.307167 C343.483246,107.307167 341.775008,108.930909 341.67,111 L341.67,118 C341.775008,120.069091 343.483246,121.692833 345.555,121.692833 C347.626754,121.692833 349.334992,120.069091 349.44,118 L349.44,111 Z" id="Shape" fill="#FFFFFF"></path>
                <path d="M376.28,124 L376.28,114.76 C376.28,113.39 375.75,112.57 374.62,112.57 C372.74,112.57 372.03,115.27 372.03,116.69 L372.03,124 L369.16,124 L369.16,114.76 C369.16,113.39 368.66,112.57 367.5,112.57 C365.62,112.57 364.89,115.27 364.89,116.69 L364.89,124 L362,124 L362,110.71 L364.45,110.71 L364.56,113.71 C365.56,111.29 367.03,110.44 368.69,110.44 C370.35,110.44 371.45,111.63 371.85,113.34 C372.85,111.26 374.07,110.44 375.85,110.44 C378.05,110.44 379.17,112.14 379.17,114.65 L379.17,124 L376.28,124 Z" id="Path" fill="#FFFFFF"></path>
                <path d="M392.61,112.25 C392.241702,112.283543 391.871316,112.214312 391.54,112.05 C392.348139,112.66677 392.82461,113.623405 392.83,114.64 L392.83,114.83 C392.83,117.25 390.83,118.9 387.65,118.9 C387.10184,118.881425 386.55639,118.814499 386.02,118.7 C385.02,118.7 384.42,119.33 384.42,119.84 C384.42,120.55 385.23,121 388.47,121 C392.47,121 393.96,122.4 393.96,124.24 L393.96,124.47 C393.96,126.55 391.76,128.65 387.62,128.65 C384.22,128.65 381.62,127.37 381.62,125.38 L381.62,125.24 C381.62,124.1 382.49,123.05 384.62,122.65 C382.84,122.28 382.11,121.46 382.11,120.52 C382.312091,119.22937 383.368546,118.24307 384.67,118.13 C383.342975,117.539303 382.507913,116.201622 382.56,114.75 L382.56,114.66 C382.56,112.28 384.84,110.43 387.68,110.43 C388.582041,110.433581 389.477341,110.585613 390.33,110.88 C391.76,111.02 392.1,110.2 392.1,109.09 L394.1,109.09 C394.194135,109.520281 394.241079,109.959543 394.240018,110.4 C394.21,111.85 393.31,112.25 392.61,112.25 Z M391.28,124.56 C391.28,123.62 390.58,123.05 388.1,123.05 C385.29,123.05 384.25,123.82 384.25,124.7 L384.25,124.84 C384.25,125.75 385.25,126.49 387.68,126.49 C390.11,126.49 391.28,125.61 391.28,124.67 L391.28,124.56 Z M390.28,114.64 C390.084692,113.360498 388.984323,112.415348 387.69,112.415348 C386.395677,112.415348 385.295308,113.360498 385.1,114.64 L385.1,114.72 C385.295308,115.999502 386.395677,116.944652 387.69,116.944652 C388.984323,116.944652 390.084692,115.999502 390.28,114.72 L390.28,114.64 Z" id="Shape" fill="#FFFFFF"></path>
                <path d="M215.57,156.85 L215.32,154.57 C214.563503,156.185461 212.90107,157.178963 211.12,157.08 C209.797949,157.123011 208.519674,156.603356 207.602636,155.650094 C206.685598,154.696832 206.21583,153.399394 206.31,152.08 L206.31,148.47 C206.31,145.47 208.37,143.27 210.93,143.27 C212.433621,143.16884 213.881281,143.858563 214.75,145.09 L214.75,137.93 L217.57,137.93 L217.57,156.86 L215.57,156.85 Z M214.72,148.55 C214.807181,147.744601 214.541266,146.940918 213.990914,146.346461 C213.440561,145.752003 212.659719,145.425043 211.85,145.45 C210.14,145.45 209.1,146.5 209.1,148.63 L209.1,151.79 C209.1,153.92 210.17,154.94 211.85,154.94 C212.640677,154.961816 213.403694,154.648194 213.950479,154.076642 C214.497264,153.50509 214.776799,152.728935 214.72,151.94 L214.72,148.55 Z" id="Shape" fill="#FFFFFF"></path>
                <path d="M226.12,157.08 C222.75,157.08 220.55,155 220.55,151.73 L220.55,148.73 C220.46202,147.248679 221.018537,145.801616 222.076424,144.760978 C223.13431,143.720339 224.590325,143.187683 226.07,143.3 C229.53,143.3 231.44,145.52 231.44,148.76 L231.44,150.41 L223.31,150.41 L223.31,152.23 C223.31,153.79 224.41,154.9 226.31,154.9 C228.03,154.9 228.96,153.9 228.96,152.77 L228.96,152.48 L231.46,152.48 L231.46,152.54 C231.44,155.37 229.08,157.08 226.12,157.08 Z M228.85,148.08 C228.727629,146.641166 227.524028,145.535584 226.08,145.535584 C224.635972,145.535584 223.432371,146.641166 223.31,148.08 L223.31,148.93 L228.85,148.93 L228.85,148.08 Z" id="Shape" fill="#FFFFFF"></path>
                <path d="M239,157.08 C235.77,157.08 233.6,155.26 233.6,152.78 L233.6,152.33 L236.11,152.33 L236.11,152.53 C236.11,154.26 237.43,154.92 239.06,154.92 C240.69,154.92 241.59,154.26 241.59,153.18 C241.59,150.11 233.97,152.04 233.97,147.18 C233.97,145.18 235.85,143.26 238.97,143.26 C242.09,143.26 244.04,144.97 244.04,147.44 L244.04,147.69 L241.53,147.69 L241.53,147.55 C241.53,146.36 240.61,145.48 238.97,145.48 C237.33,145.48 236.53,146.13 236.53,147.01 C236.53,149.8 244.150044,148.01 244.150044,153.01 C244.16,155 242.47,157.08 239,157.08 Z" id="Path" fill="#FFFFFF"></path>
                <path d="M252.1,157.08 C248.72,157.08 246.53,155 246.53,151.73 L246.53,148.73 C246.438981,147.249644 246.993108,145.802343 248.049496,144.761293 C249.105883,143.720243 250.561133,143.187341 252.04,143.3 C255.5,143.3 257.41,145.52 257.41,148.76 L257.41,150.41 L249.28,150.41 L249.28,152.23 C249.28,153.79 250.38,154.9 252.28,154.9 C253.99,154.9 254.92,153.9 254.92,152.77 L254.92,152.48 L257.42,152.48 L257.42,152.54 C257.41,155.37 255.05,157.08 252.1,157.08 Z M254.83,148.08 C254.741837,146.612019 253.525626,145.466658 252.055,145.466658 C250.584374,145.466658 249.368163,146.612019 249.28,148.08 L249.28,148.93 L254.83,148.93 L254.83,148.08 Z" id="Shape" fill="#FFFFFF"></path>
                <path d="M268.7,156.85 L268.7,147.85 C268.7,146.28 267.91,145.4 266.51,145.4 C264.62,145.4 263.24,147.96 263.24,149.52 L263.24,156.83 L260.37,156.83 L260.37,143.54 L262.79,143.54 L262.93,146.98 C264.03,144.37 265.55,143.26 267.49,143.26 C270.13,143.26 271.57,145.11 271.57,147.72 L271.57,156.85 L268.7,156.85 Z" id="Path" fill="#FFFFFF"></path>
                <path d="M279.65,157.08 C276.41,157.08 274.25,155.26 274.25,152.78 L274.25,152.33 L276.75,152.33 L276.75,152.53 C276.75,154.26 278.07,154.92 279.7,154.92 C281.33,154.92 282.24,154.26 282.24,153.18 C282.24,150.11 274.61,152.04 274.61,147.18 C274.61,145.18 276.5,143.26 279.61,143.26 C282.72,143.26 284.67,144.97 284.67,147.44 L284.67,147.69 L282.17,147.69 L282.17,147.55 C282.17,146.36 281.24,145.48 279.61,145.48 C277.98,145.48 277.16,146.13 277.16,147.01 C277.16,149.8 284.79,148.01 284.79,153.01 C284.83,155 283.14,157.08 279.65,157.08 Z" id="Path" fill="#FFFFFF"></path>
                <path d="M287.64,156.85 L287.64,143.54 L290.51,143.54 L290.51,156.85 L287.64,156.85 Z M287.72,141.24 L287.72,138.54 L290.43,138.54 L290.43,141.24 L287.72,141.24 Z" id="Shape" fill="#FFFFFF"></path>
                <path d="M297.94,145.73 L297.94,152.56 C297.858206,154.075821 298.260978,155.578337 299.09,156.85 L296,156.85 C295.264422,155.546524 294.940233,154.051068 295.07,152.56 L295.07,145.73 L293,145.73 L293,143.54 L295.13,143.54 L295.13,141.1 L297.92,140.19 L297.92,143.54 L300.4,143.54 L300.4,145.73 L297.94,145.73 Z" id="Path" fill="#FFFFFF"></path>
                <path d="M303,156.85 L303,143.54 L305.87,143.54 L305.87,156.85 L303,156.85 Z M303.08,141.24 L303.08,138.54 L305.78,138.54 L305.78,141.24 L303.08,141.24 Z" id="Shape" fill="#FFFFFF"></path>
                <polygon id="Path" fill="#FFFFFF" points="311.87 154.63 318.74 154.63 318.74 156.85 308.55 156.85 308.55 155.2 315.67 145.76 308.83 145.76 308.83 143.54 318.93 143.54 318.93 145.19"></polygon>
                <path d="M331.88,157.08 C330.67,157.08 329.63,156.56 329.65,155 C328.552424,156.335193 326.908295,157.100247 325.18,157.08 C322.65,157.08 320.93,155.65 320.93,153.35 L320.93,153.21 C320.93,149.8 324.81,148.86 328.98,149.12 L328.98,147.78 C329.04295,147.155258 328.817527,146.535916 328.367728,146.0978 C327.917928,145.659683 327.292869,145.450634 326.67,145.53 C325.07,145.53 324.08,146.13 324.08,147.53 L324.08,147.59 L321.58,147.59 L321.58,147.45 C321.58,145.17 323.32,143.27 326.58,143.27 C330.24,143.27 331.67,145.37 331.67,148.27 L331.67,154.07 C331.67,154.7 331.95,154.98 332.82,154.98 L332.82,157.06 L331.88,157.08 Z M328.98,150.85 C325.46,150.62 323.66,151.39 323.66,153.12 L323.66,153.21 C323.689767,153.703001 323.920802,154.162112 324.298982,154.479783 C324.677162,154.797455 325.169261,154.945775 325.66,154.89 C327.2,154.89 328.95,153.89 328.95,152.53 L328.98,150.85 Z" id="Shape" fill="#FFFFFF"></path>
                <path d="M339.2,145.73 L339.2,152.56 C339.113262,154.076333 339.516441,155.580367 340.35,156.85 L337.25,156.85 C336.522559,155.543676 336.202181,154.049736 336.33,152.56 L336.33,145.73 L334.27,145.73 L334.27,143.54 L336.41,143.54 L336.41,141.1 L339.2,140.19 L339.2,143.54 L341.67,143.54 L341.67,145.73 L339.2,145.73 Z" id="Path" fill="#FFFFFF"></path>
                <path d="M344.2,156.85 L344.2,143.54 L347.07,143.54 L347.07,156.85 L344.2,156.85 Z M344.29,141.24 L344.29,138.54 L347,138.54 L347,141.24 L344.29,141.24 Z" id="Shape" fill="#FFFFFF"></path>
                <path d="M355.85,157.08 C352.53,157.08 350.23,155.08 350.23,151.65 L350.23,148.75 C350.23,145.33 352.53,143.26 355.85,143.26 C359.17,143.26 361.45,145.33 361.45,148.75 L361.45,151.65 C361.45,155.06 359.15,157.08 355.85,157.08 Z M358.67,148.43 C358.67,146.867034 357.402966,145.6 355.84,145.6 C354.277034,145.6 353.01,146.867034 353.01,148.43 L353.01,151.9 C353.01,153.462966 354.277034,154.73 355.84,154.73 C357.402966,154.73 358.67,153.462966 358.67,151.9 L358.67,148.43 Z" id="Shape" fill="#FFFFFF"></path>
                <path d="M372.94,156.85 L372.94,147.85 C372.94,146.28 372.15,145.4 370.74,145.4 C368.86,145.4 367.48,147.96 367.48,149.52 L367.48,156.83 L364.61,156.83 L364.61,143.54 L367,143.54 L367.14,146.98 C368.23,144.37 369.75,143.26 371.7,143.26 C374.34,143.26 375.77,145.11 375.77,147.72 L375.77,156.85 L372.94,156.85 Z" id="Path" fill="#FFFFFF"></path>
                <path d="M170.73,179 C167.52,178.46 166.25,179.54 166.25,181 L166.25,189.67 L163.38,189.67 L163.38,176.37 L165.8,176.37 L165.97,179.27 C166.9,176.57 168.31,175.91 170.73,176.27 L170.73,179 Z" id="Path" fill="#FFFFFF"></path>
                <path d="M178.1,189.91 C174.72,189.91 172.53,187.83 172.53,184.56 L172.53,181.56 C172.438981,180.079644 172.993108,178.632343 174.049496,177.591293 C175.105883,176.550243 176.561133,176.017341 178.04,176.13 C181.5,176.13 183.42,178.35 183.42,181.59 L183.42,183.24 L175.29,183.24 L175.29,185 C175.29,186.56 176.38,187.67 178.29,187.67 C180,187.67 180.93,186.67 180.93,185.54 L180.93,185.25 L183.44,185.25 L183.44,185.31 C183.42,188.2 181.05,189.91 178.1,189.91 Z M180.83,180.91 C180.835242,180.193954 180.539178,179.5087 180.014179,179.021744 C179.489181,178.534789 178.783631,178.291011 178.07,178.35 C177.350857,178.27524 176.634246,178.512971 176.102383,179.002744 C175.57052,179.492517 175.274648,180.187145 175.29,180.91 L175.29,181.76 L180.83,181.76 L180.83,180.91 Z" id="Shape" fill="#FFFFFF"></path>
                <path d="M195.18,189.68 L194.93,187.41 C194.170486,189.021555 192.508715,190.010704 190.73,189.91 C189.407949,189.953011 188.129674,189.433356 187.212636,188.480094 C186.295598,187.526832 185.82583,186.229394 185.92,184.91 L185.92,181.3 C185.92,178.3 187.98,176.1 190.54,176.1 C192.044001,175.996845 193.492591,176.687011 194.36,177.92 L194.36,170.76 L197.18,170.76 L197.18,189.69 L195.18,189.68 Z M194.34,181.38 C194.42378,180.575354 194.156699,179.773637 193.607099,179.179992 C193.057499,178.586347 192.278707,178.258376 191.47,178.28 C189.75,178.28 188.71,179.33 188.71,181.46 L188.71,184.62 C188.71,186.75 189.78,187.78 191.47,187.78 C192.259743,187.79869 193.020877,187.484095 193.566961,186.913276 C194.113045,186.342456 194.393635,185.568141 194.34,184.78 L194.34,181.38 Z" id="Shape" fill="#FFFFFF"></path>
                <path d="M209.36,189.68 L209.22,186.68 C208.22,188.95 206.75,189.95 204.78,189.95 C201.99,189.95 200.58,188.16 200.58,185.51 L200.58,176.42 L203.45,176.42 L203.45,185.34 C203.36153,185.982702 203.566626,186.631134 204.008598,187.10606 C204.45057,187.580985 205.082605,187.832103 205.73,187.79 C207.59,187.79 208.91,185.37 208.91,183.79 L208.91,176.4 L211.78,176.4 L211.78,189.7 L209.36,189.68 Z" id="Path" fill="#FFFFFF"></path>
                <path d="M220.42,189.91 C217.05,189.91 214.82,187.78 214.82,184.48 L214.82,181.61 C214.754564,180.107459 215.330565,178.647868 216.404468,177.594947 C217.478371,176.542026 218.949043,175.994933 220.45,176.09 C223.45,176.09 225.63,177.8 225.63,180.95 L225.63,181 L223.12,181 L223.12,180.66 C223.118367,179.984524 222.829786,179.34156 222.326193,178.891378 C221.822599,178.441196 221.151435,178.226206 220.48,178.3 C219.68045,178.256244 218.901311,178.561888 218.344774,179.137615 C217.788238,179.713342 217.509174,180.502392 217.58,181.3 L217.58,184.51 C217.479847,185.320653 217.746587,186.13372 218.307489,186.727502 C218.868391,187.321285 219.664962,187.633861 220.48,187.58 C221.153114,187.638444 221.820171,187.414004 222.321052,186.960555 C222.821933,186.507106 223.111411,185.865592 223.12,185.19 L223.12,184.85 L225.63,184.85 L225.63,184.97 C225.63,188.2 223.38,189.91 220.42,189.91 Z" id="Path" fill="#FFFFFF"></path>
                <path d="M233.59,189.91 C230.22,189.91 228.02,187.83 228.02,184.56 L228.02,181.56 C227.93202,180.078679 228.488537,178.631616 229.546424,177.590978 C230.60431,176.550339 232.060325,176.017683 233.54,176.13 C237,176.13 238.91,178.35 238.91,181.59 L238.91,183.24 L230.78,183.24 L230.78,185 C230.78,186.56 231.88,187.67 233.78,187.67 C235.5,187.67 236.43,186.67 236.43,185.54 L236.43,185.25 L238.93,185.25 L238.93,185.31 C238.91,188.2 236.55,189.91 233.59,189.91 Z M236.32,180.91 C236.197629,179.471166 234.994028,178.365584 233.55,178.365584 C232.105972,178.365584 230.902371,179.471166 230.78,180.91 L230.78,181.76 L236.32,181.76 L236.32,180.91 Z" id="Shape" fill="#FFFFFF"></path>
                <path d="M246.45,189.91 C243.22,189.91 241.05,188.09 241.05,185.62 L241.05,185.16 L243.56,185.16 L243.56,185.36 C243.56,187.09 244.88,187.75 246.51,187.75 C248.14,187.75 249,187.09 249,186 C249,182.93 241.38,184.87 241.38,180 C241.38,178 243.26,176.07 246.38,176.07 C249.5,176.07 251.45,177.78 251.45,180.25 L251.45,180.51 L249,180.51 L249,180.36 C249,179.17 248.07,178.29 246.43,178.29 C244.79,178.29 244,179 244,179.84 C244,182.63 251.620044,180.84 251.620044,185.84 C251.63,187.83 249.94,189.91 246.45,189.91 Z" id="Path" fill="#FFFFFF"></path>
                <path d="M268.1,179 C264.89,178.46 263.62,179.54 263.62,181 L263.62,189.67 L260.75,189.67 L260.75,176.37 L263.17,176.37 L263.34,179.27 C264.27,176.57 265.68,175.91 268.1,176.27 L268.1,179 Z" id="Path" fill="#FFFFFF"></path>
                <path d="M275.47,189.91 C272.09,189.91 269.9,187.83 269.9,184.56 L269.9,181.56 C269.808981,180.079644 270.363108,178.632343 271.419496,177.591293 C272.475883,176.550243 273.931133,176.017341 275.41,176.13 C278.87,176.13 280.79,178.35 280.79,181.59 L280.79,183.24 L272.66,183.24 L272.66,185 C272.66,186.56 273.75,187.67 275.66,187.67 C277.37,187.67 278.3,186.67 278.3,185.54 L278.3,185.25 L280.81,185.25 L280.81,185.31 C280.79,188.2 278.42,189.91 275.47,189.91 Z M278.2,180.91 C278.205242,180.193954 277.909178,179.5087 277.384179,179.021744 C276.859181,178.534789 276.153631,178.291011 275.44,178.35 C274.720857,178.27524 274.004246,178.512971 273.472383,179.002744 C272.94052,179.492517 272.644648,180.187145 272.66,180.91 L272.66,181.76 L278.2,181.76 L278.2,180.91 Z" id="Shape" fill="#FFFFFF"></path>
                <polygon id="Path" fill="#FFFFFF" points="283.74 189.68 283.74 170.75 286.58 170.75 286.58 189.68"></polygon>
                <path d="M300.4,189.91 C299.19,189.91 298.15,189.4 298.18,187.83 C297.080222,189.167949 295.431784,189.933296 293.7,189.91 C291.17,189.91 289.46,188.49 289.46,186.18 L289.46,186 C289.46,182.59 293.34,181.65 297.46,181.91 L297.46,180.57 C297.543946,179.942977 297.326288,179.313207 296.873088,178.871829 C296.419888,178.430452 295.784585,178.229513 295.16,178.33 C293.55,178.33 292.57,178.92 292.57,180.33 L292.57,180.33 L290.1,180.33 L290.1,180.19 C290.1,177.92 291.85,176.01 295.1,176.01 C298.76,176.01 300.19,178.12 300.19,181.01 L300.19,186.81 C300.19,187.44 300.48,187.72 301.35,187.72 L301.35,189.8 L300.4,189.91 Z M297.5,183.68 C293.99,183.45 292.19,184.22 292.19,185.96 L292.19,186 C292.216904,186.494098 292.447144,186.955017 292.826038,187.273288 C293.204932,187.591559 293.698674,187.738785 294.19,187.68 C295.74,187.68 297.48,186.68 297.48,185.32 L297.5,183.68 Z" id="Shape" fill="#FFFFFF"></path>
                <path d="M307.72,178.56 L307.72,185.39 C307.636804,186.905967 308.039692,188.408912 308.87,189.68 L305.78,189.68 C305.044422,188.376524 304.720233,186.881068 304.85,185.39 L304.85,178.56 L302.79,178.56 L302.79,176.38 L304.93,176.38 L304.93,173.93 L307.72,173.02 L307.72,176.38 L310.2,176.38 L310.2,178.56 L307.72,178.56 Z" id="Path" fill="#FFFFFF"></path>
                <path d="M312.73,189.68 L312.73,176.38 L315.6,176.38 L315.6,189.68 L312.73,189.68 Z M312.81,174.07 L312.81,171.37 L315.51,171.37 L315.51,174.07 L312.81,174.07 Z" id="Shape" fill="#FFFFFF"></path>
                <polygon id="Path" fill="#FFFFFF" points="325.05 189.68 322.46 189.68 317.68 176.38 320.68 176.38 322.9 183.54 323.9 186.7 324.85 183.54 327.05 176.38 329.95 176.38"></polygon>
                <path d="M337.07,189.91 C333.69,189.91 331.5,187.83 331.5,184.56 L331.5,181.56 C331.408981,180.079644 331.963108,178.632343 333.019496,177.591293 C334.075883,176.550243 335.531133,176.017341 337.01,176.13 C340.47,176.13 342.39,178.35 342.39,181.59 L342.39,183.24 L334.26,183.24 L334.26,185 C334.26,186.56 335.35,187.67 337.26,187.67 C338.97,187.67 339.9,186.67 339.9,185.54 L339.9,185.25 L342.41,185.25 L342.41,185.31 C342.39,188.2 340,189.91 337.07,189.91 Z M339.8,180.91 C339.805242,180.193954 339.509178,179.5087 338.984179,179.021744 C338.459181,178.534789 337.753631,178.291011 337.04,178.35 C336.320857,178.27524 335.604246,178.512971 335.072383,179.002744 C334.54052,179.492517 334.244648,180.187145 334.26,180.91 L334.26,181.76 L339.8,181.76 L339.8,180.91 Z" id="Shape" fill="#FFFFFF"></path>
                <path d="M359,179 C355.79,178.46 354.53,179.54 354.53,181 L354.53,189.67 L351.66,189.67 L351.66,176.37 L354.08,176.37 L354.25,179.27 C355.17,176.57 356.58,175.91 359,176.27 L359,179 Z" id="Path" fill="#FFFFFF"></path>
                <path d="M361.24,189.68 L361.24,176.38 L364.11,176.38 L364.11,189.68 L361.24,189.68 Z M361.33,174.07 L361.33,171.37 L364,171.37 L364,174.07 L361.33,174.07 Z" id="Shape" fill="#FFFFFF"></path>
                <path d="M372.3,189.91 C369.07,189.91 366.9,188.09 366.9,185.62 L366.9,185.16 L369.41,185.16 L369.41,185.36 C369.41,187.09 370.73,187.75 372.36,187.75 C373.99,187.75 374.89,187.09 374.89,186.01 C374.89,182.94 367.27,184.88 367.27,180.01 C367.27,178.01 369.15,176.08 372.27,176.08 C375.39,176.08 377.34,177.79 377.34,180.26 L377.34,180.52 L374.83,180.52 L374.83,180.37 C374.83,179.18 373.91,178.3 372.27,178.3 C370.63,178.3 369.83,178.95 369.83,179.83 C369.83,182.62 377.45,180.83 377.45,185.83 C377.48,187.83 375.79,189.91 372.3,189.91 Z" id="Path" fill="#FFFFFF"></path>
                <polygon id="Path" fill="#FFFFFF" points="388.62 189.68 385.19 183.74 383.05 186.35 383.05 189.68 380.24 189.68 380.24 170.75 383.05 170.75 383.05 183 388.17 176.35 391.17 176.35 386.92 181.83 391.62 189.65"></polygon>
                <path d="M405.26,189.91 C401.94,189.91 399.63,187.91 399.63,184.48 L399.63,181.58 C399.63,178.17 401.94,176.09 405.26,176.09 C406.758063,175.975117 408.232792,176.512551 409.305678,177.564363 C410.378564,178.616174 410.945145,180.079953 410.86,181.58 L410.86,184.48 C410.86,187.89 408.55,189.91 405.26,189.91 Z M408.07,181.27 C408.07,179.707034 406.802966,178.44 405.24,178.44 C403.677034,178.44 402.41,179.707034 402.41,181.27 L402.41,184.73 C402.41,186.292966 403.677034,187.56 405.24,187.56 C406.802966,187.56 408.07,186.292966 408.07,184.73 L408.07,181.27 Z" id="Shape" fill="#FFFFFF"></path>
                <path d="M417.86,178.56 L417.86,189.68 L415,189.68 L415,178.56 L413,178.56 L413,176.38 L415,176.38 L415,175.61 C415,172.61 416.44,170.61 419.53,170.61 L420.63,170.61 L420.63,172.86 L419.81,172.86 C418.32,172.86 417.76,173.71 417.76,175.22 L417.76,176.33 L420.43,176.33 L420.43,178.51 L417.86,178.56 Z" id="Path" fill="#FFFFFF"></path>
                <path d="M177.72,222.74 C176.51,222.74 175.47,222.23 175.5,220.66 C174.397491,221.994416 172.750848,222.758928 171.02,222.74 C168.49,222.74 166.77,221.32 166.77,219.02 L166.77,218.87 C166.77,215.46 170.66,214.52 174.77,214.78 L174.77,213.44 C174.833629,212.815925 174.608018,212.197069 174.157672,211.76037 C173.707326,211.32367 173.081822,211.117203 172.46,211.2 C170.86,211.2 169.87,211.8 169.87,213.2 L169.87,213.26 L167.37,213.26 L167.37,213.11 C167.37,210.84 169.11,208.93 172.37,208.93 C176.03,208.93 177.46,211.04 177.46,213.93 L177.46,219.72 C177.46,220.35 177.74,220.63 178.62,220.63 L178.62,222.71 L177.72,222.74 Z M174.82,216.51 C171.3,216.29 169.5,217.05 169.5,218.79 L169.5,218.87 C169.529767,219.363001 169.760802,219.822112 170.138982,220.139783 C170.517162,220.457455 171.009261,220.605775 171.5,220.55 C173.05,220.55 174.79,219.55 174.79,218.19 L174.82,216.51 Z" id="Shape" fill="#FFFFFF"></path>
                <path d="M189.54,222.51 L189.54,213.51 C189.54,211.95 188.75,211.06 187.34,211.06 C185.46,211.06 184.08,213.62 184.08,215.19 L184.08,222.49 L181.21,222.49 L181.21,209.19 L183.63,209.19 L183.77,212.63 C184.87,210.01 186.39,208.9 188.33,208.9 C190.97,208.9 192.41,210.75 192.41,213.37 L192.41,222.49 L189.54,222.51 Z" id="Path" fill="#FFFFFF"></path>
                <path d="M212.44,222.74 C211.23,222.74 210.19,222.23 210.22,220.66 C209.122424,221.995193 207.478295,222.760247 205.75,222.74 C203.22,222.74 201.5,221.32 201.5,219.02 L201.5,218.87 C201.5,215.46 205.38,214.52 209.55,214.78 L209.55,213.44 C209.613629,212.815925 209.388018,212.197069 208.937672,211.76037 C208.487326,211.32367 207.861822,211.117203 207.24,211.2 C205.64,211.2 204.65,211.8 204.65,213.2 L204.65,213.26 L202.15,213.26 L202.15,213.11 C202.15,210.84 203.89,208.93 207.15,208.93 C210.81,208.93 212.25,211.04 212.25,213.93 L212.25,219.72 C212.25,220.35 212.53,220.63 213.4,220.63 L213.4,222.71 L212.44,222.74 Z M209.55,216.51 C206.03,216.29 204.23,217.05 204.23,218.79 L204.23,218.87 C204.259767,219.363001 204.490802,219.822112 204.868982,220.139783 C205.247162,220.457455 205.739261,220.605775 206.23,220.55 C207.78,220.55 209.53,219.55 209.53,218.19 L209.55,216.51 Z" id="Shape" fill="#FFFFFF"></path>
                <polygon id="Path" fill="#FFFFFF" points="215.94 222.51 215.94 203.58 218.78 203.58 218.78 222.51"></polygon>
                <polygon id="Path" fill="#FFFFFF" points="222.35 222.51 222.35 203.58 225.19 203.58 225.19 222.51"></polygon>
                <path d="M233.89,222.74 C230.51,222.74 228.32,220.66 228.32,217.4 L228.32,214.35 C228.228981,212.869644 228.783108,211.422343 229.839496,210.381293 C230.895883,209.340243 232.351133,208.807341 233.83,208.92 C237.29,208.92 239.21,211.14 239.21,214.38 L239.21,216 L231.08,216 L231.08,217.82 C231.08,219.38 232.17,220.49 234.08,220.49 C235.79,220.49 236.72,219.49 236.72,218.36 L236.72,218.08 L239.23,218.08 L239.23,218.08 C239.21,221 236.84,222.74 233.89,222.74 Z M236.62,213.74 C236.625242,213.023954 236.329178,212.3387 235.804179,211.851744 C235.279181,211.364789 234.573631,211.121011 233.86,211.18 C233.140857,211.10524 232.424246,211.342971 231.892383,211.832744 C231.36052,212.322517 231.064648,213.017145 231.08,213.74 L231.08,214.59 L236.62,214.59 L236.62,213.74 Z" id="Shape" fill="#FFFFFF"></path>
                <path d="M249.51,211.82 C246.3,211.28 245.03,212.36 245.03,213.82 L245.03,222.49 L242.16,222.49 L242.16,209.19 L244.58,209.19 L244.75,212.09 C245.68,209.39 247.09,208.73 249.51,209.09 L249.51,211.82 Z" id="Path" fill="#FFFFFF"></path>
                <path d="M261.72,210.74 C261.351702,210.773543 260.981316,210.704312 260.65,210.54 C261.4607,211.155712 261.940709,212.112036 261.95,213.13 L261.95,213.33 C261.95,215.75 259.95,217.4 256.77,217.4 C256.222237,217.376486 255.677199,217.30961 255.14,217.2 C254.14,217.2 253.53,217.82 253.53,218.33 C253.53,219.04 254.35,219.5 257.53,219.5 C261.59,219.5 263.02,220.89 263.02,222.74 L263.02,223 C263.02,225.07 260.83,227.18 256.69,227.18 C253.29,227.18 250.69,225.9 250.69,223.91 L250.69,223.76 C250.69,222.63 251.56,221.58 253.64,221.18 C251.87,220.81 251.14,219.98 251.14,219.05 C251.335279,217.755771 252.395423,216.766027 253.7,216.66 C252.376731,216.064992 251.543436,214.73014 251.59,213.28 L251.59,213.19 C251.59,210.8 253.87,208.95 256.71,208.95 C257.609604,208.953807 258.502123,209.109321 259.35,209.41 C260.79,209.55 261.13,208.73 261.13,207.62 L263.13,207.62 C263.224135,208.050281 263.271079,208.489543 263.27,208.93 C263.32,210.35 262.42,210.74 261.72,210.74 Z M260.4,223.05 C260.4,222.11 259.69,221.55 257.22,221.55 C254.4,221.55 253.36,222.31 253.36,223.19 L253.36,223.34 C253.36,224.25 254.36,224.99 256.8,224.99 C259.24,224.99 260.4,224.1 260.4,223.17 L260.4,223.05 Z M259.4,213.13 C259.204692,211.850498 258.104323,210.905348 256.81,210.905348 C255.515677,210.905348 254.415308,211.850498 254.22,213.13 L254.22,213.22 C254.415308,214.499502 255.515677,215.444652 256.81,215.444652 C258.104323,215.444652 259.204692,214.499502 259.4,213.22 L259.4,213.13 Z" id="Shape" fill="#FFFFFF"></path>
                <path d="M265.32,222.51 L265.32,209.21 L268.19,209.21 L268.19,222.51 L265.32,222.51 Z M265.41,206.91 L265.41,204.21 L268.11,204.21 L268.11,206.91 L265.41,206.91 Z" id="Shape" fill="#FFFFFF"></path>
                <path d="M277,222.74 C273.62,222.74 271.4,220.61 271.4,217.31 L271.4,214.44 C271.334822,212.939309 271.909493,211.481444 272.981133,210.428871 C274.052774,209.376299 275.520721,208.827892 277.02,208.92 C280.02,208.92 282.2,210.63 282.2,213.79 L282.2,213.87 L279.7,213.87 L279.7,213.53 C279.692422,212.854677 279.400657,212.2138 278.896303,211.764639 C278.391948,211.315478 277.721687,211.099607 277.05,211.17 C276.251393,211.129625 275.474299,211.436333 274.91854,212.011256 C274.362782,212.586178 274.082585,213.37322 274.15,214.17 L274.15,217.38 C274.05355,218.189854 274.321546,219.000741 274.881597,219.593622 C275.441648,220.186504 276.23597,220.500209 277.05,220.45 C277.723049,220.511278 278.391214,220.289493 278.894028,219.837909 C279.396842,219.386325 279.688878,218.745741 279.7,218.07 L279.7,217.72 L282.2,217.72 L282.2,217.84 C282.15,221 279.9,222.74 277,222.74 Z" id="Path" fill="#FFFFFF"></path>
                <path d="M298.64,211.82 C295.43,211.28 294.17,212.36 294.17,213.82 L294.17,222.49 L291.3,222.49 L291.3,209.19 L293.72,209.19 L293.89,212.09 C294.82,209.39 296.22,208.73 298.64,209.09 L298.64,211.82 Z" id="Path" fill="#FFFFFF"></path>
                <path d="M306,222.74 C302.62,222.74 300.42,220.66 300.42,217.4 L300.42,214.35 C300.33202,212.868679 300.888537,211.421616 301.946424,210.380978 C303.00431,209.340339 304.460325,208.807683 305.94,208.92 C309.4,208.92 311.31,211.14 311.31,214.38 L311.31,216 L303.2,216 L303.2,217.82 C303.2,219.38 304.3,220.49 306.2,220.49 C307.92,220.49 308.85,219.49 308.85,218.36 L308.85,218.08 L311.35,218.08 L311.35,218.08 C311.33,221 309,222.74 306,222.74 Z M308.73,213.74 C308.735242,213.023954 308.439178,212.3387 307.914179,211.851744 C307.389181,211.364789 306.683631,211.121011 305.97,211.18 C305.24923,211.102156 304.529849,211.338496 303.995679,211.828631 C303.461509,212.318765 303.164301,213.015209 303.18,213.74 L303.18,214.59 L308.73,214.59 L308.73,213.74 Z" id="Shape" fill="#FFFFFF"></path>
                <path d="M324.53,222.74 C323.32,222.74 322.28,222.23 322.31,220.66 C321.210222,221.997949 319.561784,222.763296 317.83,222.74 C315.3,222.74 313.59,221.32 313.59,219.02 L313.59,218.87 C313.59,215.46 317.47,214.52 321.59,214.78 L321.59,213.44 C321.673946,212.812977 321.456288,212.183207 321.003088,211.741829 C320.549888,211.300452 319.914585,211.099513 319.29,211.2 C317.68,211.2 316.7,211.8 316.7,213.2 L316.7,213.26 L314.19,213.26 L314.19,213.11 C314.19,210.84 315.94,208.93 319.19,208.93 C322.85,208.93 324.28,211.04 324.28,213.93 L324.28,219.72 C324.28,220.35 324.57,220.63 325.44,220.63 L325.44,222.71 L324.53,222.74 Z M321.63,216.51 C318.12,216.29 316.32,217.05 316.32,218.79 L316.32,218.87 C316.349767,219.363001 316.580802,219.822112 316.958982,220.139783 C317.337162,220.457455 317.829261,220.605775 318.32,220.55 C319.87,220.55 321.61,219.55 321.61,218.19 L321.63,216.51 Z" id="Shape" fill="#FFFFFF"></path>
                <path d="M333.17,222.74 C329.8,222.74 327.57,220.61 327.57,217.31 L327.57,214.44 C327.504564,212.937459 328.080565,211.477868 329.154468,210.424947 C330.228371,209.372026 331.699043,208.824933 333.2,208.92 C336.2,208.92 338.38,210.63 338.38,213.79 L338.38,213.87 L335.87,213.87 L335.87,213.53 C335.865236,212.855569 335.575736,212.214546 335.07291,211.76505 C334.570084,211.315554 333.900746,211.099434 333.23,211.17 C332.43045,211.126244 331.651311,211.431888 331.094774,212.007615 C330.538238,212.583342 330.259174,213.372392 330.33,214.17 L330.33,217.38 C330.229847,218.190653 330.496587,219.00372 331.057489,219.597502 C331.618391,220.191285 332.414962,220.503861 333.23,220.45 C333.902101,220.511406 334.569312,220.289359 335.070584,219.837455 C335.571856,219.385551 335.861644,218.744849 335.87,218.07 L335.87,217.72 L338.38,217.72 L338.38,217.84 C338.38,221 336.13,222.74 333.17,222.74 Z" id="Path" fill="#FFFFFF"></path>
                <path d="M345.05,211.4 L345.05,218.22 C344.965394,219.736113 345.368397,221.239491 346.2,222.51 L343.11,222.51 C342.374422,221.206524 342.050233,219.711068 342.18,218.22 L342.18,211.4 L340.12,211.4 L340.12,209.21 L342.26,209.21 L342.26,206.76 L345.05,205.85 L345.05,209.21 L347.52,209.21 L347.52,211.4 L345.05,211.4 Z" id="Path" fill="#FFFFFF"></path>
                <path d="M350.06,222.51 L350.06,209.21 L352.93,209.21 L352.93,222.51 L350.06,222.51 Z M350.14,206.91 L350.14,204.21 L352.84,204.21 L352.84,206.91 L350.14,206.91 Z" id="Shape" fill="#FFFFFF"></path>
                <path d="M361.71,222.74 C358.39,222.74 356.08,220.74 356.08,217.31 L356.08,214.41 C356.08,211 358.39,208.92 361.71,208.92 C363.208063,208.805117 364.682792,209.342551 365.755678,210.394363 C366.828564,211.446174 367.395145,212.909953 367.31,214.41 L367.31,217.31 C367.31,220.72 365,222.74 361.71,222.74 Z M364.52,214.1 C364.582462,213.050614 364.058097,212.053077 363.158289,211.509518 C362.25848,210.965959 361.13152,210.965959 360.231711,211.509518 C359.331903,212.053077 358.807538,213.050614 358.87,214.1 L358.87,217.57 C358.807538,218.619386 359.331903,219.616923 360.231711,220.160482 C361.13152,220.704041 362.25848,220.704041 363.158289,220.160482 C364.058097,219.616923 364.582462,218.619386 364.52,217.57 L364.52,214.1 Z" id="Shape" fill="#FFFFFF"></path>
                <path d="M378.79,222.51 L378.79,213.51 C378.79,211.95 378,211.06 376.59,211.06 C374.71,211.06 373.33,213.62 373.33,215.19 L373.33,222.49 L370.46,222.49 L370.46,209.19 L372.88,209.19 L373.02,212.63 C374.12,210.01 375.64,208.9 377.58,208.9 C380.22,208.9 381.66,210.75 381.66,213.37 L381.66,222.49 L378.79,222.51 Z" id="Path" fill="#FFFFFF"></path>
                <path d="M398,222.74 C396.210068,222.866375 394.529104,221.870543 393.78,220.24 L393.22,222.51 L391.5,222.51 L391.5,203.58 L394.32,203.58 L394.32,211.25 C395.174249,209.769013 396.770902,208.874734 398.48,208.92 C401.18,208.92 402.76,211.11 402.76,213.92 L402.76,217.73 C402.849827,219.040581 402.385885,220.32876 401.481055,221.281112 C400.576226,222.233465 399.31346,222.762682 398,222.74 L398,222.74 Z M400,214.35 C400,212.19 399,211.14 397.27,211.14 C396.454372,211.12172 395.670015,211.453856 395.11554,212.052306 C394.561066,212.650756 394.289643,213.458134 394.37,214.27 L394.37,217.62 C394.325602,218.405774 394.609269,219.174739 395.153323,219.743437 C395.697378,220.312135 396.45303,220.629567 397.24,220.62 C398.96,220.62 400,219.62 400,217.43 L400,214.35 Z" id="Shape" fill="#FFFFFF"></path>
                <path d="M411.91,222.31 C410.67,225.41 409.91,226.98 406.76,226.98 L405.61,226.98 L405.61,224.9 L406.61,224.9 C408.1,224.9 408.52,224.42 408.91,223.39 L409.14,222.71 L404.35,209.21 L407.25,209.21 L409.5,216.37 L410.5,219.5 L411.43,216.37 L413.65,209.21 L416.55,209.21 L411.91,222.31 Z" id="Path" fill="#FFFFFF"></path>
                <path d="M124.5,299.4 C114.88,299.4 108.77,294.4 108.77,287 L108.77,284.68 L118.06,284.68 L118.06,285.68 C118.06,289.25 120.5,291.23 124.57,291.23 C129.32,291.23 131.15,288.29 131.15,284.11 L131.15,276.64 C128.747003,279.623003 125.078005,281.298142 121.25,281.16 C113.11,281.16 108.57,276.44 108.57,269.24 L108.57,265.34 C108.57,257.19 114.67,251.23 124.57,251.23 C134.68,251.23 140.980048,257.23 140.980048,266.92 L140.980048,283.22 C141,292.76 134.81,299.4 124.5,299.4 Z M131.15,265.77 C131.15,262.21 128.78,259.26 124.44,259.26 C120.37,259.26 118.13,261.59 118.13,265.15 L118.13,268.72 C118.13,272.62 120.23,274.88 124.3,274.88 C127.330373,275.049195 130.113612,273.212663 131.15,270.36 L131.15,265.77 Z" id="Shape" fill="#FFFFFF"></path>
                <path d="M174.41,287.89 L174.41,298.1 L165,298.1 L165,287.89 L145.8,287.89 L145.8,281.11 L165.67,252.48 L174.41,252.48 L174.41,280.15 L179.64,280.15 L179.64,287.89 L174.41,287.89 Z M165,265.84 L155.23,280.15 L165,280.15 L165,265.84 Z" id="Shape" fill="#FFFFFF"></path>
                <polygon id="Path" fill="#FFFFFF" points="183.57 298.1 183.57 288.65 191.78 288.65 191.78 298.1"></polygon>
                <path d="M213.07,299.4 C203.44,299.4 197.34,294.4 197.34,287 L197.34,284.68 L206.63,284.68 L206.63,285.68 C206.63,289.25 209.07,291.23 213.14,291.23 C217.88,291.23 219.71,288.29 219.71,284.11 L219.71,276.64 C217.308,279.624286 213.638321,281.299735 209.81,281.16 C201.68,281.16 197.13,276.44 197.13,269.24 L197.13,265.34 C197.13,257.19 203.24,251.23 213.13,251.23 C223.23,251.23 229.540012,257.23 229.540012,266.92 L229.540012,283.22 C229.55,292.76 223.38,299.4 213.07,299.4 Z M219.71,265.77 C219.71,262.21 217.34,259.26 213,259.26 C208.93,259.26 206.7,261.59 206.7,265.15 L206.7,268.72 C206.7,272.62 208.8,274.88 212.87,274.88 C215.897675,275.047991 218.677396,273.2111 219.71,270.36 L219.71,265.77 Z" id="Shape" fill="#FFFFFF"></path>
                <path d="M239.87,283.38 C238.372789,283.467843 236.91056,282.904963 235.858708,281.835868 C234.806856,280.766772 234.267826,279.295585 234.38,277.8 L234.38,273.37 C234.38,270.332434 236.842434,267.87 239.88,267.87 C242.917566,267.87 245.38,270.332434 245.38,273.37 L245.38,277.8 C245.496212,279.300137 244.955677,280.776873 243.898478,281.847503 C242.84128,282.918132 241.371485,283.477266 239.87,283.38 L239.87,283.38 Z M238.73,299.21 L236.58,297.61 L257.38,267.47 L259.53,269.11 L238.73,299.21 Z M241.73,272.57 C241.761095,272.054427 241.574059,271.549525 241.214582,271.178636 C240.855105,270.807747 240.356293,270.605028 239.84,270.62 C239.320012,270.592089 238.813418,270.790736 238.450999,271.164661 C238.08858,271.538585 237.905857,272.051138 237.95,272.57 L237.95,278.57 C237.897004,279.08743 238.078269,279.601435 238.444121,279.971158 C238.809972,280.340881 239.322041,280.527546 239.84,280.48 C240.354298,280.513305 240.857785,280.322067 241.220287,279.955729 C241.582789,279.589391 241.768717,279.083918 241.73,278.57 L241.73,272.57 Z M256.21,298.94 C254.702144,299.021409 253.232025,298.450848 252.173867,297.373555 C251.115709,296.296263 250.571584,294.816155 250.68,293.31 L250.68,288.88 C250.571584,287.373845 251.115709,285.893737 252.173867,284.816445 C253.232025,283.739152 254.702144,283.168591 256.21,283.25 C259.41,283.25 261.65,285.38 261.65,288.88 L261.65,293.31 C261.68,296.82 259.44,298.94 256.24,298.94 L256.21,298.94 Z M258.09,288.13 C258.130502,287.613781 257.947975,287.104934 257.588583,286.732161 C257.229191,286.359388 256.727354,286.158388 256.21,286.18 C255.687168,286.141594 255.174209,286.336931 254.809351,286.713371 C254.444494,287.089812 254.265279,287.608623 254.32,288.13 L254.32,294.07 C254.263785,294.596259 254.440721,295.120758 254.804232,295.505426 C255.167743,295.890093 255.681405,296.096386 256.21,296.07 C256.732971,296.080213 257.235824,295.86856 257.594081,295.487436 C257.952338,295.106312 258.132511,294.591341 258.09,294.07 L258.09,288.13 Z" id="Shape" fill="#FFFFFF"></path>
                <path d="M281.87,281.09 L281.87,291.43 C281.744021,293.791157 282.382223,296.130063 283.69,298.1 L277.26,298.1 C276.2,296.4 275.88,294.47 275.88,291.43 L275.88,281.09 L272.69,281.09 L272.69,276.61 L276.06,276.61 L276.06,272.67 L281.87,271.24 L281.87,276.61 L285.81,276.61 L285.81,281.09 L281.87,281.09 Z" id="Path" fill="#FFFFFF"></path>
                <path d="M297.25,298.46 C291.93,298.46 288.25,295.46 288.25,289.95 L288.25,284.76 C288.25,279.3 291.97,276.21 297.25,276.21 C302.53,276.21 306.34,279.3 306.34,284.76 L306.34,290 C306.34,295.46 302.57,298.46 297.25,298.46 Z M300.49,283.86 C300.49,282.070597 299.039403,280.62 297.25,280.62 C295.460597,280.62 294.01,282.070597 294.01,283.86 L294.01,290.8 C294.01,293 295.21,294.16 297.25,294.16 C299.29,294.16 300.49,293 300.49,290.8 L300.49,283.86 Z" id="Shape" fill="#FFFFFF"></path>
                <path d="M337.29,299.4 C327.66,299.4 321.56,294.4 321.56,287 L321.56,284.68 L330.85,284.68 L330.85,285.68 C330.85,289.25 333.29,291.23 337.36,291.23 C342.1,291.23 343.93,288.29 343.93,284.11 L343.93,276.64 C341.528,279.624286 337.858321,281.299735 334.03,281.16 C325.9,281.16 321.35,276.44 321.35,269.24 L321.35,265.34 C321.35,257.19 327.46,251.23 337.35,251.23 C347.45,251.23 353.760012,257.23 353.760012,266.92 L353.760012,283.22 C353.77,292.76 347.6,299.4 337.29,299.4 Z M343.93,265.77 C343.93,262.21 341.56,259.26 337.22,259.26 C333.15,259.26 330.91,261.59 330.91,265.15 L330.91,268.72 C330.91,272.62 333.02,274.88 337.09,274.88 C340.117675,275.047991 342.897396,273.2111 343.93,270.36 L343.93,265.77 Z" id="Shape" fill="#FFFFFF"></path>
                <path d="M376.08,299.4 C366.45,299.4 360.35,294.4 360.35,287 L360.35,284.68 L369.64,284.68 L369.64,285.68 C369.64,289.25 372.08,291.23 376.15,291.23 C380.89,291.23 382.72,288.29 382.72,284.11 L382.72,276.64 C380.318,279.624286 376.648321,281.299735 372.82,281.16 C364.69,281.16 360.14,276.44 360.14,269.24 L360.14,265.34 C360.14,257.19 366.25,251.23 376.14,251.23 C386.24,251.23 392.550012,257.23 392.550012,266.92 L392.550012,283.22 C392.56,292.76 386.38,299.4 376.08,299.4 Z M382.72,265.77 C382.72,262.21 380.35,259.26 376.01,259.26 C371.94,259.26 369.7,261.59 369.7,265.15 L369.7,268.72 C369.7,272.62 371.81,274.88 375.87,274.88 C378.901274,275.052536 381.686329,273.214805 382.72,270.36 L382.72,265.77 Z" id="Shape" fill="#FFFFFF"></path>
                <polygon id="Path" fill="#FFFFFF" points="396.69 298.1 396.69 288.65 404.9 288.65 404.9 298.1"></polygon>
                <path d="M424.84,299.4 C415.21,299.4 409.1,294.4 409.1,287 L409.1,284.68 L418.39,284.68 L418.39,285.68 C418.39,289.25 420.83,291.23 424.9,291.23 C429.65,291.23 431.48,288.29 431.48,284.11 L431.48,276.64 C429.077003,279.623003 425.408005,281.298142 421.58,281.16 C413.44,281.16 408.9,276.44 408.9,269.24 L408.9,265.34 C408.9,257.19 415,251.23 424.9,251.23 C435.01,251.23 441.31,257.23 441.31,266.92 L441.31,283.22 C441.31,292.76 435.14,299.4 424.84,299.4 Z M431.48,265.77 C431.48,262.21 429.11,259.26 424.77,259.26 C420.7,259.26 418.46,261.59 418.46,265.15 L418.46,268.72 C418.46,272.62 420.56,274.88 424.63,274.88 C427.660373,275.049195 430.443612,273.212663 431.48,270.36 L431.48,265.77 Z" id="Shape" fill="#FFFFFF"></path>
                <path d="M451.64,283.38 C450.141878,283.471212 448.677626,282.909407 447.624996,281.83952 C446.572365,280.769633 446.034442,279.296441 446.15,277.8 L446.15,273.37 C446.15,270.332434 448.612434,267.87 451.65,267.87 C454.687566,267.87 457.15,270.332434 457.15,273.37 L457.15,277.8 C457.266212,279.300137 456.725677,280.776873 455.668478,281.847503 C454.61128,282.918132 453.141485,283.477266 451.64,283.38 L451.64,283.38 Z M450.5,299.21 L448.34,297.61 L469.15,267.47 L471.3,269.11 L450.5,299.21 Z M453.5,272.57 C453.530914,272.056209 453.345207,271.552958 452.987956,271.182406 C452.630706,270.811854 452.134577,270.607881 451.62,270.62 C451.100012,270.592089 450.593418,270.790736 450.230999,271.164661 C449.86858,271.538585 449.685857,272.051138 449.73,272.57 L449.73,278.57 C449.677004,279.08743 449.858269,279.601435 450.224121,279.971158 C450.589972,280.340881 451.102041,280.527546 451.62,280.48 C452.132616,280.510286 452.633336,280.317715 452.993556,279.951747 C453.353777,279.585778 453.538397,279.082072 453.5,278.57 L453.5,272.57 Z M468,298.94 C466.493834,299.018431 465.026462,298.446558 463.970571,297.369626 C462.914681,296.292694 462.371869,294.814325 462.48,293.31 L462.48,288.88 C462.371869,287.375675 462.914681,285.897306 463.970571,284.820374 C465.026462,283.743442 466.493834,283.171569 468,283.25 C471.21,283.25 473.45,285.38 473.45,288.88 L473.45,293.31 C473.45,296.82 471.21,298.94 468,298.94 Z M469.89,288.13 C469.927478,287.612792 469.742549,287.104157 469.381643,286.731793 C469.020736,286.359428 468.518126,286.158699 468,286.18 C467.478844,286.144706 466.96871,286.341411 466.606164,286.717456 C466.243619,287.093501 466.065686,287.610482 466.12,288.13 L466.12,294.07 C466.064118,294.594444 466.239765,295.117177 466.600995,295.501464 C466.962226,295.885752 467.473105,296.093366 468,296.07 C468.524692,296.08309 469.030249,295.872695 469.390739,295.491224 C469.75123,295.109753 469.932719,294.593114 469.89,294.07 L469.89,288.13 Z" id="Shape" fill="#FFFFFF"></path>
                <path d="M488.1,266.66 C488.01298,266.818816 487.859893,266.930757 487.682169,266.965529 C487.504444,267.000301 487.320458,266.954309 487.18,266.84 C485.908745,266.11155 484.752789,265.198243 483.75,264.13 C484.108031,265.567934 484.315811,267.039154 484.37,268.52 C484.37,268.83 484.15,269.28 483.75,269.28 L481.75,269.28 C481.31,269.28 481.14,268.83 481.14,268.52 C481.151229,267.055427 481.342668,265.597804 481.71,264.18 C480.688726,265.225085 479.535697,266.132718 478.28,266.88 C478.138038,267.014538 477.943041,267.078 477.749088,267.052786 C477.555134,267.027572 477.382845,266.916363 477.28,266.75 L476.28,264.98 C476.201302,264.82115 476.189815,264.63732 476.248126,264.469909 C476.306438,264.302498 476.429645,264.165584 476.59,264.09 C477.853606,263.386698 479.196368,262.836165 480.59,262.45 C479.174553,262.052903 477.806505,261.503001 476.51,260.81 C476.347665,260.736598 476.222575,260.599782 476.163973,260.431538 C476.105371,260.263293 476.118395,260.07837 476.2,259.92 L477.2,258.15 C477.313187,257.997115 477.48372,257.896879 477.672356,257.872356 C477.860993,257.847833 478.051486,257.901137 478.2,258.02 C479.445783,258.761578 480.594586,259.65509 481.62,260.68 C481.245101,259.259277 481.040333,257.799042 481.01,256.33 C481.01,256.02 481.18,255.58 481.62,255.58 L483.62,255.58 C484.06,255.58 484.23,256.02 484.23,256.33 C484.202837,257.799294 483.998015,259.259906 483.62,260.68 C484.670599,259.641028 485.830706,258.718977 487.08,257.93 C487.222156,257.815471 487.407561,257.769412 487.586787,257.8041 C487.766013,257.838789 487.920843,257.950701 488.01,258.11 L489.01,259.83 C489.154403,260.189263 488.997443,260.599104 488.65,260.77 C487.388058,261.464454 486.044326,261.998587 484.65,262.36 C486.041019,262.753768 487.382918,263.303947 488.65,264 C488.8239,264.072266 488.960708,264.212469 489.02869,264.388088 C489.096671,264.563707 489.089919,264.759482 489.01,264.93 L488.1,266.66 Z" id="Path" fill="#FFFFFF"></path>
                <path d="M497.69,270.83 C493.93,270.83 491.9,268.61 491.9,266.08 L491.9,265 L495.41,265 L495.41,265.52 C495.314333,266.129498 495.514276,266.748161 495.948555,267.186387 C496.382833,267.624614 496.999661,267.830148 497.61,267.74 C498.233404,267.834142 498.864703,267.62882 499.313457,267.18597 C499.762212,266.743121 499.975877,266.114597 499.89,265.49 L499.89,263.63 C499.961537,263.045217 499.760637,262.459963 499.345028,262.042402 C498.929418,261.624841 498.345112,261.421203 497.76,261.49 C496.700798,261.490185 495.720193,262.048902 495.18,262.96 L492.03,262.45 L492.65,253.15 L503.45,253.15 C503.24,255.34 502.63,256.32 500.89,256.32 L495.64,256.32 L495.33,260.48 C496.302329,259.355685 497.734895,258.736993 499.22,258.8 C500.385827,258.680859 501.54526,259.078961 502.391998,259.889135 C503.238736,260.69931 503.687597,261.840052 503.62,263.01 L503.62,265.78 C503.62,268.74 501.42,270.83 497.69,270.83 Z" id="Path" fill="#FFFFFF"></path>
                <circle id="Oval" fill="#36B0A1" cx="69.71" cy="76.18" r="69.71"></circle>
                <path d="M22,90.61 C16.32,90.61 13.27,87.15 13.27,83.21 L13.27,81.12 L18.56,81.12 L18.56,82.33 C18.56,84.62 19.72,85.79 22,85.79 C22.856653,85.8704136 23.7047833,85.5662755 24.3151197,84.959802 C24.9254561,84.3533285 25.234973,83.5071462 25.16,82.65 L25.16,81 C25.16,79.47 24.35,78.35 21.96,78.35 L19.74,78.35 L19.74,74.35 L22.1,74.35 C24.34,74.35 25.18,73.26 25.18,71.69 L25.18,70.39 C25.2833269,69.5120589 24.9847521,68.6343963 24.367482,68.0015973 C23.7502118,67.3687984 22.8802369,67.0485139 22,67.13 C19.92,67.13 18.68,68.3 18.68,70.59 L18.68,71.59 L13.37,71.59 L13.37,69.7 C13.37,65.76 16.37,62.34 22.1,62.34 C27.66,62.34 30.74,65.72 30.74,69.9 L30.74,70.63 C30.8863119,73.3986249 28.8624376,75.8071665 26.11,76.14 C29.24,76.82 30.82,78.87 30.82,81.56 L30.82,83.17 C30.82,87.35 27.69,90.61 22,90.61 Z" id="Path" fill="#FEFEFE"></path>
                <path d="M42.67,90.61 C36.81,90.61 33.14,86.75 33.14,81.32 L33.14,71.63 C33.14,66.16 36.81,62.34 42.67,62.34 C48.53,62.34 52.17,66.16 52.17,71.63 L52.17,81.32 C52.17,86.75 48.47,90.61 42.67,90.61 Z M46.57,71.35 C46.6726259,70.2786911 46.2985437,69.2165107 45.5472391,68.4459419 C44.7959345,67.6753731 43.7435634,67.2745243 42.67,67.35 C41.5942064,67.2758331 40.5398007,67.6759635 39.7840544,68.4451709 C39.0283081,69.2143784 38.6468536,70.2756833 38.74,71.35 L38.74,81.56 C38.6468536,82.6343167 39.0283081,83.6956216 39.7840544,84.4648291 C40.5398007,85.2340365 41.5942064,85.6341669 42.67,85.56 C43.7435634,85.6354757 44.7959345,85.2346269 45.5472391,84.4640581 C46.2985437,83.6934893 46.6726259,82.6313089 46.57,81.56 L46.57,71.35 Z" id="Shape" fill="#FEFEFE"></path>
                <path d="M64.33,90.61 C58.47,90.61 54.8,86.75 54.8,81.32 L54.8,71.63 C54.8,66.16 58.47,62.34 64.33,62.34 C70.19,62.34 73.83,66.16 73.83,71.63 L73.83,81.32 C73.83,86.75 70.13,90.61 64.33,90.61 Z M68.23,71.35 C68.3030991,69.9040961 67.5733035,68.5356177 66.3318803,67.7907351 C65.0904571,67.0458526 63.5395429,67.0458526 62.2981197,67.7907351 C61.0566965,68.5356177 60.3269009,69.9040961 60.4,71.35 L60.4,81.56 C60.3269009,83.0059039 61.0566965,84.3743823 62.2981197,85.1192649 C63.5395429,85.8641474 65.0904571,85.8641474 66.3318803,85.1192649 C67.5733035,84.3743823 68.3030991,83.0059039 68.23,81.56 L68.23,71.35 Z" id="Shape" fill="#FEFEFE"></path>
                <path d="M103.1,89.85 L103.1,76.54 C103.1,75.09 102.48,74.13 101.24,74.13 C99.51,74.13 98.74,76.46 98.74,77.94 L98.74,89.85 L93.49,89.85 L93.49,76.46 C93.49,75.01 92.87,74.04 91.63,74.04 C89.89,74.04 89.08,76.38 89.08,77.9 L89.08,89.85 L83.83,89.85 L83.83,70.55 L88.35,70.55 L88.7,74.49 C89.82,71.59 91.59,70.19 93.91,70.19 C96.23,70.19 97.69,71.79 98.27,74.25 C99.47,71.39 101.17,70.19 103.52,70.19 C106.73,70.19 108.35,72.52 108.35,76.1 L108.35,89.85 L103.1,89.85 Z" id="Path" fill="#FEFEFE"></path>
                <path d="M125.41,72.88 C124.868787,72.8983915 124.333852,72.7594476 123.87,72.48 C125.046776,73.36538 125.745189,74.7474239 125.76,76.22 L125.76,76.54 C125.76,80 123.02,82.33 118.39,82.33 C117.741739,82.3254272 117.095424,82.2584515 116.46,82.13 C115.22,82.13 114.64,82.81 114.64,83.49 C114.64,84.38 115.57,84.86 119.2,84.86 C124.87,84.86 127.11,87.03 127.11,90.13 L127.11,90.37 C127.11,93.79 124.03,96.6 118.43,96.6 C113.49,96.6 110.13,94.6 110.13,91.7 L110.13,91.41 C110.13,89.93 111.25,88.41 113.52,87.8 C111.44,87.19 110.59,86.03 110.59,84.7 C110.59,83.13 112.1,81.52 114.22,81.24 C112.283835,80.3934631 111.059501,78.4519639 111.13,76.34 L111.13,76.22 C111.13,72.8 114.3,70.22 118.39,70.22 C119.485201,70.2510953 120.572826,70.412225 121.63,70.7 C123.52,70.82 123.91,69.81 123.91,68.2 L127.62,68.2 C127.733907,68.8373471 127.797437,69.482676 127.81,70.13 C127.81,72 126.69,72.88 125.41,72.88 Z M122.52,90.53 C122.52,89.24 121.52,88.53 118.77,88.53 C116.02,88.53 114.68,89.33 114.68,90.53 L114.68,90.69 C114.68,91.94 115.88,92.69 118.5,92.69 C121.12,92.69 122.5,91.77 122.5,90.52 L122.52,90.53 Z M121.05,76.18 C120.964017,74.7822733 119.805369,73.6927114 118.405,73.6927114 C117.004631,73.6927114 115.845983,74.7822733 115.76,76.18 L115.76,76.58 C115.845983,77.9777267 117.004631,79.0672886 118.405,79.0672886 C119.805369,79.0672886 120.964017,77.9777267 121.05,76.58 L121.05,76.18 Z" id="Shape" fill="#FEFEFE"></path>
            </g>
        </g>
    </g>
</svg>