<?xml version="1.0" encoding="utf-8"?>
<!-- Generator: Adobe Illustrator 24.0.2, SVG Export Plug-In . SVG Version: 6.00 Build 0)  -->
<svg version="1.1" id="Layer_1" xmlns="http://www.w3.org/2000/svg" xmlns:xlink="http://www.w3.org/1999/xlink" x="0px" y="0px"
	 viewBox="0 0 445 283" style="enable-background:new 0 0 445 283;" xml:space="preserve">
<style type="text/css">
	.st0{fill:none;stroke:#FFFFFF;stroke-width:0.75;}
	.st1{fill:#FFFFFF;}
	.st2{fill:#4F5DBF;}
	.st3{fill:#DBDCDC;}
	.st4{fill:#333333;}
</style>
<path id="Path" class="st0" d="M102.3,122.7V53.3c0-6.3,5.1-11.5,11.5-11.5h217.6c6.3,0,11.5,5.2,11.5,11.5v69.4"/>
<circle id="Oval" class="st1" cx="104.9" cy="177.7" r="104.9"/>
<path id="Shape" class="st2" d="M54.6,190h-2.4v4.4h-2.9v-12h5.3c2.4,0,3.6,1.3,3.6,3.2v1.2C58.2,188.7,57,190,54.6,190z
	 M55.4,185.7c0-0.7-0.3-1.1-1.2-1.1h-2v3.5h2c0.9,0,1.2-0.4,1.2-1.1L55.4,185.7z"/>
<path id="Shape_1_" class="st2" d="M66.1,194.4l-0.7-2.4H62l-0.7,2.4h-2.6l3.6-12h3.2l3.6,12H66.1z M63.8,185.6l-1.2,4.3h2.3
	L63.8,185.6z"/>
<path id="Shape_2_" class="st2" d="M77.4,194.4c-1,0-1.3-0.7-1.3-1.9v-1.8c0-0.8-0.3-1.2-1.3-1.2h-1.9v4.8H70v-12h5.2
	c2.5,0,3.7,1.2,3.7,3v0.9c0.1,1.1-0.7,2.2-1.9,2.3c0.5,0,1.1,0.3,1.4,0.7c0.4,0.4,0.5,0.9,0.5,1.5v1.7c0,0.5,0.2,1.1,0.6,1.4v0.6
	L77.4,194.4z M76,185.6c0-0.6-0.3-1.1-1.2-1.1h-1.9v3.2h1.9c0.9,0,1.3-0.4,1.3-1.1L76,185.6z"/>
<polygon id="Path_1_" class="st2" points="86.1,184.8 86.1,194.4 83.2,194.4 83.2,184.8 80,184.8 80,182.4 89.3,182.4 89.3,184.8 
	"/>
<polygon id="Path_2_" class="st2" points="90.5,194.4 90.5,182.4 93.4,182.4 93.4,194.4 "/>
<path id="Path_3_" class="st2" d="M101.7,186.7V186c0-0.5-0.1-0.9-0.5-1.3c-0.3-0.3-0.8-0.5-1.3-0.4c-0.5,0-1.1,0.2-1.4,0.5
	c-0.4,0.4-0.5,0.9-0.5,1.5v4.2c0,0.5,0.2,1,0.6,1.4c0.4,0.4,0.9,0.5,1.4,0.5c0.4,0.1,0.9-0.1,1.2-0.4c0.3-0.3,0.5-0.7,0.5-1.2v-0.8
	h2.7v0.9c0,2.2-1.8,3.7-4.4,3.7c-3.1,0-4.8-1.9-4.8-4.4v-3.9c0-2.5,1.8-4.4,4.8-4.4c2.8,0,4.5,1.6,4.5,3.8v0.9L101.7,186.7z"/>
<polygon id="Path_4_" class="st2" points="105.8,194.4 105.8,182.4 108.7,182.4 108.7,194.4 "/>
<path id="Shape_3_" class="st2" d="M115.9,190h-2.4v4.4h-2.9v-12h5.3c2.4,0,3.6,1.3,3.6,3.2v1.2C119.5,188.7,118.3,190,115.9,190z
	 M116.7,185.7c0-0.7-0.3-1.1-1.2-1.1h-2v3.5h2c0.9,0,1.2-0.4,1.2-1.1L116.7,185.7z"/>
<path id="Shape_4_" class="st2" d="M127.3,194.4l-0.7-2.4h-3.3l-0.7,2.4h-2.7l3.6-12h3.2l3.6,12H127.3z M125,185.6l-1.2,4.3h2.3
	L125,185.6z"/>
<polygon id="Path_5_" class="st2" points="138.5,194.4 134.9,189.1 133.9,187.5 133.9,194.4 131.2,194.4 131.2,182.4 133.7,182.4 
	137.2,187.8 138.1,189.3 138.1,182.4 140.8,182.4 140.8,194.4 "/>
<polygon id="Path_6_" class="st2" points="148.1,184.8 148.1,194.4 145.2,194.4 145.2,184.8 142,184.8 142,182.4 151.3,182.4 
	151.3,184.8 "/>
<path id="Path_7_" class="st2" d="M156.6,194.7c-3,0-4.7-1.5-4.7-3.7v-0.6h2.6v0.4c0,1.2,0.8,1.7,2,1.7c1.2,0,1.7-0.6,1.7-1.4
	c0-2.1-6.1-1.5-6.1-5.4c0-2,1.6-3.7,4.4-3.7c2.8,0,4.5,1.5,4.5,3.6v0.6h-2.6v-0.4c0-0.5-0.2-0.9-0.5-1.2c-0.4-0.3-0.8-0.5-1.3-0.4
	c-1,0-1.6,0.5-1.6,1.3c0,2,6.1,1.5,6.1,5.3C161.1,193,159.6,194.7,156.6,194.7z"/>
<path id="Path_8_" class="st2" d="M79.1,210c-1.9-0.4-2.7,0.3-2.7,1.2v5.2h-2.5v-8.6H76l0.1,1.8c0.1-0.7,0.5-1.3,1.1-1.6
	c0.6-0.4,1.3-0.4,1.9-0.2L79.1,210z"/>
<path id="Shape_5_" class="st2" d="M83.6,216.5c-0.9,0.1-1.9-0.2-2.5-0.9s-1.1-1.5-1.1-2.5V211c0-0.9,0.4-1.9,1.1-2.5
	c0.7-0.6,1.6-1,2.6-0.9c0.9-0.1,1.9,0.2,2.5,0.9c0.7,0.6,1,1.6,1,2.5v1.4h-4.8v1.2c0,0.4,0.1,0.7,0.4,1c0.3,0.3,0.7,0.4,1,0.3
	c0.9,0,1.3-0.5,1.3-1.1v-0.4h2.1v0.1C87.2,215.4,85.7,216.5,83.6,216.5z M84.9,210.5c0-0.3-0.1-0.7-0.4-0.9
	c-0.2-0.2-0.6-0.3-0.9-0.3c-0.3,0-0.7,0.1-0.9,0.3s-0.4,0.6-0.4,0.9v0.9h2.6V210.5z"/>
<path id="Path_9_" class="st2" d="M91.9,216.5c-2.2,0-3.6-1.3-3.6-3.4V211c0-1,0.3-1.9,1-2.6s1.7-1,2.6-0.9c2.1,0,3.4,1.1,3.4,3.2
	v0.1h-2v-0.4c0-0.4-0.1-0.7-0.4-0.9c-0.3-0.2-0.6-0.3-1-0.2c-0.4,0-0.7,0.1-1,0.4c-0.3,0.3-0.4,0.7-0.3,1v2.6
	c-0.1,0.4,0.1,0.8,0.3,1.1s0.6,0.4,1,0.4c0.3,0,0.7-0.1,0.9-0.3c0.2-0.2,0.4-0.6,0.4-0.9v-0.4h2v0.2C95.3,215.4,94,216.5,91.9,216.5
	z"/>
<path id="Shape_6_" class="st2" d="M100.1,216.5c-0.9,0.1-1.9-0.2-2.6-0.9c-0.7-0.6-1.1-1.5-1.1-2.5V211c0-0.9,0.4-1.9,1.1-2.5
	c0.7-0.6,1.6-1,2.6-0.9c0.9-0.1,1.9,0.2,2.5,0.9s1,1.6,1,2.5v1.4h-4.8v1.2c0,0.4,0.1,0.7,0.4,1c0.3,0.3,0.7,0.4,1,0.3
	c0.9,0,1.3-0.5,1.3-1.1v-0.4h2.1v0.1C103.6,215.4,102.2,216.5,100.1,216.5z M101.4,210.5c0-0.3-0.1-0.7-0.4-0.9
	c-0.2-0.2-0.6-0.3-0.9-0.3c-0.3,0-0.7,0.1-0.9,0.3c-0.2,0.2-0.4,0.6-0.4,0.9v0.9h2.6V210.5z"/>
<path id="Shape_7_" class="st2" d="M105,216.4v-8.6h2.4v8.6H105z M105.1,206.5v-1.9h2.3v1.9H105.1z"/>
<polygon id="Path_10_" class="st2" points="113.3,216.4 111.2,216.4 108.4,207.7 110.8,207.7 112,212 112.4,213.7 112.8,212 
	113.9,207.7 116.2,207.7 "/>
<path id="Shape_8_" class="st2" d="M120.5,216.5c-0.9,0.1-1.9-0.2-2.6-0.9c-0.7-0.6-1.1-1.5-1.1-2.5V211c0-0.9,0.4-1.9,1.1-2.5
	c0.7-0.6,1.6-1,2.6-0.9c0.9-0.1,1.9,0.2,2.5,0.9s1,1.6,1,2.5v1.4h-4.8v1.2c0,0.4,0.1,0.7,0.4,1c0.3,0.3,0.7,0.4,1,0.3
	c0.9,0,1.3-0.5,1.3-1.1v-0.4h2.1v0.1C124.1,215.4,122.6,216.5,120.5,216.5z M121.8,210.5c0-0.3-0.1-0.7-0.4-0.9
	c-0.2-0.2-0.6-0.3-0.9-0.3c-0.3,0-0.7,0.1-0.9,0.3s-0.4,0.6-0.4,0.9v0.9h2.6V210.5z"/>
<path id="Shape_9_" class="st2" d="M130.8,216.4l-0.2-1.2c-0.5,0.9-1.4,1.4-2.4,1.4c-0.8,0-1.6-0.3-2.2-0.9
	c-0.6-0.6-0.8-1.4-0.8-2.2v-2.7c-0.1-1.6,1.1-3,2.7-3.1c0.8,0,1.7,0.3,2.2,1v-4.2h2.4v12L130.8,216.4z M130.1,210.8
	c0-0.4-0.1-0.7-0.3-1s-0.6-0.4-1-0.4c-0.8,0-1.2,0.5-1.2,1.5v2.5c0,1,0.5,1.5,1.2,1.5c0.4,0,0.7-0.1,1-0.4c0.2-0.3,0.4-0.6,0.3-1
	V210.8z"/>
<path id="Shape_10_" class="st2" d="M68.3,234h-2.4v4.4H63v-12h5.3c2.4,0,3.6,1.3,3.6,3.2v1.2C71.9,232.7,70.7,234,68.3,234z
	 M69.1,229.7c0-0.7-0.3-1.1-1.2-1.1h-1.9v3.5h2c0.9,0,1.2-0.4,1.2-1.1L69.1,229.7z"/>
<path id="Shape_11_" class="st2" d="M79.7,238.4L79,236h-3.3l-0.7,2.4h-2.7l3.6-12h3.1l3.6,12H79.7z M77.4,229.6l-1.2,4.3h2.3
	L77.4,229.6z"/>
<polygon id="Path_11_" class="st2" points="83.7,238.4 83.7,226.4 86.5,226.4 86.5,236 91.7,236 91.7,238.4 "/>
<polygon id="Path_12_" class="st2" points="95.8,228.6 95.8,231.4 99.3,231.4 99.3,233.5 95.8,233.5 95.8,238.4 92.9,238.4 
	92.9,226.4 100.9,226.4 100.9,228.6 "/>
<path id="Shape_12_" class="st2" d="M106.6,238.7c-3,0-4.8-1.9-4.8-4.4v-3.9c0-2.5,1.9-4.4,4.8-4.4s4.8,1.8,4.8,4.4v3.9
	C111.5,236.9,109.6,238.7,106.6,238.7z M108.6,230.3c0-1.1-0.9-1.9-1.9-1.9s-1.9,0.9-1.9,1.9v4.2c0,1.1,0.9,1.9,1.9,1.9
	s1.9-0.9,1.9-1.9V230.3z"/>
<path id="Shape_13_" class="st2" d="M120.6,238.4c-1,0-1.3-0.7-1.4-1.9v-1.8c0-0.8-0.3-1.2-1.3-1.2H116v4.8h-2.9v-12h5.2
	c2.5,0,3.7,1.2,3.7,3v0.9c0.1,1.2-0.8,2.2-1.9,2.3c0.5,0,1.1,0.3,1.4,0.7c0.4,0.4,0.5,0.9,0.5,1.5v1.7c0,0.5,0.2,1.1,0.6,1.4v0.6
	L120.6,238.4z M119.1,229.6c0-0.6-0.3-1.1-1.2-1.1H116v3.2h1.8c0.9,0,1.3-0.4,1.3-1.1L119.1,229.6z"/>
<polygon id="Path_13_" class="st2" points="127.1,236 132.2,236 132.2,238.4 123.2,238.4 123.2,237.7 128.6,228.7 123.5,228.7 
	123.5,226.4 132.4,226.4 132.4,227.1 "/>
<polygon id="Path_14_" class="st2" points="133.7,238.4 133.7,226.4 136.6,226.4 136.6,238.4 "/>
<path id="Shape_14_" class="st2" d="M145,238.4l-0.7-2.4H141l-0.7,2.4h-2.7l3.6-12h3.2l3.6,12H145z M142.7,229.6l-1.2,4.3h2.3
	L142.7,229.6z"/>
<path id="Path_15_" class="st2" d="M72.4,166.9c-9.4,0-14.5-5.5-14.5-11.8v-3.3h8.8v1.9c0,3.6,1.9,5.5,5.7,5.5c3.5,0,5.2-2.1,5.2-5
	v-2.7c0-2.4-1.3-4.2-5.3-4.2h-3.7V141h3.9c3.7,0,5.1-1.7,5.1-4.2v-2c0-3.1-1.7-5.2-5.3-5.2c-3.5,0-5.5,1.9-5.5,5.5v1.7h-8.8v-3.1
	c0-6.3,5-11.7,14.5-11.7c9.2,0,14.3,5.4,14.3,12v1.2c0.2,4.5-3.2,8.3-7.7,8.8c5.2,1.1,7.8,4.4,7.8,8.6v2.6
	C87,161.7,81.8,166.9,72.4,166.9z"/>
<path id="Path_16_" class="st2" d="M106.3,165.7H96c1-11.7,7.4-25.5,15.5-34.4H91v-8.2h30.3v4.9
	C112.5,139.9,107.3,151.3,106.3,165.7z"/>
<path id="Path_17_" class="st2" d="M134,157.7h19v8h-29.6v-3.1c0-16.5,20.9-19.5,20.9-27.7c0-3.2-1.9-5.3-5.8-5.3
	c-3.3,0-5.2,2-5.2,5.8v2.5h-8.8v-3.3c0-6.7,5-12.6,14-12.6c10.4,0,14.7,5.8,14.7,12.3C153.2,146.1,136.7,149.1,134,157.7z"/>
<circle id="Oval_1_" class="st3" cx="340.1" cy="177.7" r="104.9"/>
<path id="Shape_15_" class="st4" d="M289.8,190h-2.4v4.4h-2.9v-12h5.2c2.4,0,3.6,1.3,3.6,3.2v1.2C293.4,188.7,292.2,190,289.8,190z
	 M290.6,185.7c0-0.7-0.3-1.1-1.2-1.1h-1.9v3.5h2c0.9,0,1.2-0.4,1.2-1.1L290.6,185.7z"/>
<path id="Shape_16_" class="st4" d="M301.2,194.4l-0.7-2.4h-3.4l-0.7,2.4h-2.7l3.6-12h3.1l3.6,12H301.2z M298.9,185.6l-1.2,4.3h2.3
	L298.9,185.6z"/>
<path id="Shape_17_" class="st4" d="M312.6,194.4c-1,0-1.3-0.7-1.4-1.9v-1.8c0-0.8-0.3-1.2-1.3-1.2h-2v4.8h-2.9v-12h5.2
	c2.5,0,3.7,1.2,3.7,3v0.9c0.1,1.1-0.7,2.2-1.9,2.3c1.1,0.1,2,1,1.9,2.2v1.7c0,0.5,0.2,1,0.5,1.4v0.6L312.6,194.4z M311.2,185.6
	c0-0.6-0.3-1.1-1.2-1.1h-2v3.2h1.9c0.9,0,1.3-0.4,1.3-1.1L311.2,185.6z"/>
<polygon id="Path_18_" class="st4" points="321.2,184.8 321.2,194.4 318.3,194.4 318.3,184.8 315.1,184.8 315.1,182.4 324.4,182.4 
	324.4,184.8 "/>
<polygon id="Path_19_" class="st4" points="325.7,194.4 325.7,182.4 328.5,182.4 328.5,194.4 "/>
<path id="Path_20_" class="st4" d="M336.8,186.7V186c0-0.5-0.1-0.9-0.5-1.2c-0.3-0.3-0.8-0.5-1.3-0.4c-0.5-0.1-1.1,0.1-1.5,0.5
	s-0.6,0.9-0.5,1.4v4.2c0,0.5,0.2,1,0.6,1.4s0.9,0.5,1.4,0.5c0.4,0.1,0.9-0.1,1.2-0.4c0.3-0.3,0.5-0.7,0.5-1.2v-0.8h2.7v0.9
	c0,2.2-1.7,3.7-4.4,3.7c-3.1,0-4.8-1.9-4.8-4.4v-3.9c0-2.5,1.8-4.4,4.8-4.4c2.8,0,4.5,1.6,4.5,3.8v0.9H336.8z"/>
<polygon id="Path_21_" class="st4" points="341,194.4 341,182.4 343.9,182.4 343.9,194.4 "/>
<path id="Shape_18_" class="st4" d="M351,190h-2.4v4.4h-2.9v-12h5.3c2.4,0,3.6,1.3,3.6,3.2v1.2C354.7,188.7,353.4,190,351,190z
	 M351.8,185.7c0-0.7-0.3-1.1-1.2-1.1h-1.9v3.5h2c0.9,0,1.2-0.4,1.2-1.1L351.8,185.7z"/>
<path id="Shape_19_" class="st4" d="M362.5,194.4l-0.7-2.4h-3.4l-0.7,2.4h-2.7l3.6-12h3.1l3.6,12H362.5z M360.2,185.6L359,190h2.3
	L360.2,185.6z"/>
<polygon id="Path_22_" class="st4" points="373.6,194.4 370,189.1 369,187.5 369,194.4 366.4,194.4 366.4,182.4 368.8,182.4 
	372.3,187.8 373.2,189.3 373.2,182.4 375.9,182.4 375.9,194.4 "/>
<polygon id="Path_23_" class="st4" points="383.2,184.8 383.2,194.4 380.4,194.4 380.4,184.8 377.2,184.8 377.2,182.4 386.5,182.4 
	386.5,184.8 "/>
<path id="Path_24_" class="st4" d="M391.8,194.7c-3,0-4.7-1.5-4.7-3.7v-0.6h2.6v0.4c0,1.2,0.8,1.7,2,1.7s1.6-0.6,1.6-1.4
	c0-2.1-6.1-1.5-6.1-5.4c0-2,1.6-3.7,4.4-3.7c2.8,0,4.5,1.5,4.5,3.6v0.6h-2.6v-0.4c0-0.5-0.2-0.9-0.5-1.2c-0.4-0.3-0.8-0.5-1.3-0.4
	c-1,0-1.6,0.5-1.6,1.3c0,2,6.1,1.5,6.1,5.3C396.2,193,394.7,194.7,391.8,194.7z"/>
<path id="Path_25_" class="st4" d="M316,210c-2-0.4-2.7,0.3-2.7,1.2v5.2h-2.4v-8.6h2.1l0.1,1.8c0.1-0.7,0.5-1.3,1.1-1.6
	c0.6-0.4,1.3-0.4,1.9-0.2L316,210z"/>
<path id="Shape_20_" class="st4" d="M320.6,216.5c-0.9,0.1-1.9-0.2-2.6-0.9s-1.1-1.5-1.1-2.5V211c0-0.9,0.4-1.9,1.1-2.5
	c0.7-0.6,1.6-1,2.6-0.9c0.9-0.1,1.9,0.2,2.5,0.9c0.7,0.6,1,1.6,1,2.5v1.4h-4.8v1.2c0,0.4,0.1,0.7,0.4,1s0.7,0.4,1,0.3
	c0.9,0,1.3-0.5,1.3-1.1v-0.4h2.1v0.1C324.1,215.4,322.7,216.5,320.6,216.5z M321.9,210.5c0-0.7-0.6-1.3-1.3-1.3
	c-0.7,0-1.3,0.6-1.3,1.3v0.9h2.6V210.5z"/>
<path id="Path_26_" class="st4" d="M328.9,216.5c-2.2,0-3.6-1.3-3.6-3.4V211c0-1,0.3-1.9,1-2.6c0.7-0.7,1.6-1,2.6-0.9
	c2.1,0,3.4,1.1,3.4,3.2v0.1h-2v-0.4c0-0.3-0.1-0.6-0.4-0.9c-0.2-0.2-0.6-0.3-0.9-0.3c-0.4,0-0.7,0.1-1,0.4c-0.3,0.3-0.4,0.6-0.3,1
	v2.6c-0.1,0.4,0.1,0.8,0.3,1c0.3,0.3,0.6,0.4,1,0.4c0.3,0,0.7-0.1,0.9-0.3c0.2-0.2,0.4-0.6,0.4-0.9v-0.4h2v0.2
	C332.3,215.4,331,216.5,328.9,216.5z"/>
<path id="Shape_21_" class="st4" d="M337.1,216.5c-0.9,0.1-1.9-0.2-2.6-0.9c-0.7-0.6-1.1-1.5-1.1-2.5V211c0-0.9,0.4-1.9,1.1-2.5
	c0.7-0.6,1.6-1,2.6-0.9c0.9-0.1,1.9,0.2,2.5,0.9c0.7,0.6,1,1.6,1,2.5v1.4h-4.8v1.2c0,0.4,0.1,0.7,0.4,1c0.3,0.3,0.7,0.4,1,0.3
	c0.9,0,1.3-0.5,1.3-1.1v-0.4h2.1v0.1C340.6,215.4,339.1,216.5,337.1,216.5z M338.4,210.5c-0.1-0.7-0.6-1.2-1.3-1.2
	c-0.7,0-1.2,0.5-1.3,1.2v0.9h2.6V210.5z"/>
<path id="Shape_22_" class="st4" d="M342,216.4v-8.6h2.5v8.6H342z M342,206.5v-1.9h2.3v1.9H342z"/>
<polygon id="Path_27_" class="st4" points="350.3,216.4 348.2,216.4 345.3,207.7 347.8,207.7 348.9,212 349.4,213.7 349.8,212 
	350.9,207.7 353.2,207.7 "/>
<path id="Shape_23_" class="st4" d="M357.5,216.5c-0.9,0.1-1.9-0.2-2.6-0.9c-0.7-0.6-1.1-1.5-1.1-2.5V211c0-0.9,0.4-1.9,1.1-2.5
	c0.7-0.6,1.6-1,2.6-0.9c0.9-0.1,1.9,0.2,2.5,0.9c0.7,0.6,1,1.6,1,2.5v1.4h-4.8v1.2c0,0.4,0.1,0.7,0.4,1s0.7,0.4,1,0.3
	c0.9,0,1.3-0.5,1.3-1.1v-0.4h2v0.1C361,215.4,359.6,216.5,357.5,216.5z M358.8,210.5c-0.1-0.7-0.6-1.2-1.3-1.2s-1.2,0.5-1.3,1.2v0.9
	h2.6V210.5z"/>
<path id="Shape_24_" class="st4" d="M367.7,216.4l-0.1-1.2c-0.5,0.9-1.4,1.4-2.4,1.4c-0.8,0-1.6-0.3-2.2-0.9
	c-0.6-0.6-0.8-1.4-0.8-2.2v-2.7c-0.1-1.6,1.1-3,2.7-3.1c0.8,0,1.7,0.3,2.2,1v-4.2h2.4v12L367.7,216.4z M367.1,210.8
	c0-0.4-0.1-0.7-0.3-1c-0.2-0.3-0.6-0.4-1-0.4c-0.8,0-1.2,0.5-1.2,1.5v2.5c0,1,0.5,1.5,1.2,1.5c0.4,0,0.7-0.1,1-0.4
	c0.2-0.3,0.4-0.6,0.3-1V210.8z"/>
<path id="Shape_25_" class="st4" d="M319.8,238.5c-0.9,0-1.7-0.3-2.2-1v3.7h-2.4v-11.5h1.8l0.1,1.2c0.5-0.9,1.4-1.4,2.5-1.4
	c0.8,0,1.6,0.3,2.2,0.9c0.6,0.6,0.8,1.4,0.7,2.2v2.8C322.6,237.1,321.4,238.4,319.8,238.5z M320.1,232.8c0-0.9-0.5-1.5-1.2-1.5
	c-0.4,0-0.7,0.2-1,0.4c-0.2,0.3-0.4,0.6-0.3,1v2.6c0,0.4,0.1,0.7,0.3,1c0.2,0.3,0.6,0.4,1,0.4c0.8,0,1.2-0.5,1.2-1.5V232.8z"/>
<polygon id="Path_28_" class="st4" points="324,238.4 324,226.4 326.4,226.4 326.4,238.4 "/>
<path id="Shape_26_" class="st4" d="M334.9,238.5c-1.1,0-1.7-0.4-1.9-1.4c-0.6,0.9-1.7,1.4-2.8,1.4c-0.7,0.1-1.3-0.2-1.8-0.6
	c-0.5-0.5-0.8-1.1-0.7-1.8v-0.1c0-1.9,2-2.6,4.8-2.7v-1c0-0.7-0.3-1.1-1.1-1.1s-1.1,0.3-1.1,1v0.3h-2.1v-0.3c0-1.6,1.2-2.8,3.3-2.8
	c2.3,0,3.4,1.3,3.4,3.1v3.7c0,0.4,0.2,0.5,0.7,0.5v1.6L334.9,238.5z M332.5,234.5c-1.6,0-2.5,0.4-2.5,1.3v0.2c0,0.5,0.5,1,1,0.9
	c0.7,0.1,1.3-0.4,1.4-1.2V234.5z"/>
<path id="Path_29_" class="st4" d="M340,238.5c-2.2,0-3.6-1.3-3.6-3.4V233c0-1,0.3-1.9,1-2.6c0.7-0.7,1.6-1,2.6-0.9
	c2.1,0,3.4,1.1,3.4,3.2v0.1h-2.1v-0.4c0-0.3-0.1-0.7-0.4-0.9c-0.2-0.2-0.6-0.3-0.9-0.3c-0.4,0-0.7,0.1-1,0.4s-0.4,0.7-0.3,1v2.6
	c-0.1,0.4,0.1,0.8,0.3,1s0.6,0.4,1,0.4c0.3,0,0.7-0.1,0.9-0.3c0.2-0.2,0.4-0.6,0.4-0.9v-0.4h2.1v0.2
	C343.4,237.4,342.1,238.5,340,238.5z"/>
<path id="Shape_27_" class="st4" d="M348.2,238.5c-0.9,0.1-1.9-0.2-2.6-0.9c-0.7-0.6-1.1-1.5-1.1-2.5V233c0-0.9,0.4-1.9,1.1-2.5
	c0.7-0.6,1.6-1,2.6-0.9c0.9-0.1,1.9,0.2,2.5,0.9c0.7,0.6,1,1.6,1,2.5v1.4h-4.8v1.2c0,0.4,0.1,0.7,0.4,1c0.3,0.3,0.7,0.4,1,0.3
	c0.9,0,1.3-0.5,1.3-1.1v-0.4h2.1v0.1C351.7,237.4,350.2,238.5,348.2,238.5z M349.5,232.5c0-0.3-0.1-0.7-0.4-0.9
	c-0.2-0.2-0.6-0.3-0.9-0.3c-0.3,0-0.7,0.1-0.9,0.3c-0.2,0.2-0.4,0.6-0.4,0.9v0.9h2.6V232.5z"/>
<path id="Shape_28_" class="st4" d="M357.5,238.5c-1,0.1-2-0.5-2.5-1.4l-0.3,1.2h-1.6v-12h2.4v4.5c0.5-0.8,1.4-1.3,2.4-1.3
	c1.5,0,2.5,1.3,2.5,3v2.8c0.1,0.8-0.2,1.6-0.7,2.2C359.1,238.2,358.3,238.5,357.5,238.5L357.5,238.5z M358,232.8
	c0-1-0.5-1.5-1.2-1.5c-0.4,0-0.7,0.2-1,0.4c-0.2,0.3-0.4,0.6-0.3,1v2.6c0,0.4,0.1,0.7,0.3,1c0.2,0.3,0.6,0.4,1,0.4
	c0.8,0,1.2-0.5,1.2-1.5V232.8z"/>
<path id="Shape_29_" class="st4" d="M365.3,238.5c-2.2,0-3.7-1.2-3.7-3.4V233c0-2.2,1.5-3.4,3.7-3.4s3.7,1.2,3.7,3.4v2.1
	C369,237.3,367.5,238.5,365.3,238.5z M366.6,232.7c0-0.5-0.2-1-0.6-1.2c-0.4-0.3-1-0.3-1.4,0c-0.4,0.3-0.7,0.7-0.6,1.2v2.8
	c0,0.5,0.2,1,0.6,1.2c0.4,0.3,1,0.3,1.4,0c0.4-0.3,0.7-0.7,0.6-1.2V232.7z"/>
<path id="Path_30_" class="st4" d="M302.3,165.7v-31.2h-5.6v-6.4h3.3c3.3,0,4.7-1.9,5.2-5h6.6v42.6L302.3,165.7z"/>
<path id="Path_31_" class="st4" d="M330.4,157.7h19.1v8h-29.6v-3.1c0-16.5,20.9-19.5,20.9-27.7c0-3.2-1.9-5.3-5.8-5.3
	c-3.3,0-5.2,2-5.2,5.8v2.5H321v-3.3c0-6.7,5-12.6,14-12.6c10.4,0,14.7,5.8,14.7,12.3C349.6,146.1,333.1,149.1,330.4,157.7z"/>
<path id="Shape_30_" class="st4" d="M379.6,156.2v9.5h-8.9v-9.5h-18.1v-6.3l18.8-26.8h8.3v25.9h4.9v7.2H379.6z M370.7,135.6
	l-9.2,13.4h9.2V135.6z"/>
<path id="Shape_31_" class="st1" d="M68.5,7.7h-2.7v4.6h-2v-12h4.6c2.7,0,3.7,1.4,3.7,3.3v0.9C72.2,6.3,71.2,7.7,68.5,7.7z
	 M70.2,3.6c0-0.9-0.4-1.5-1.6-1.5h-2.8v4h2.8c1.2,0,1.6-0.6,1.6-1.6V3.6z"/>
<path id="Shape_32_" class="st1" d="M80.8,12.3l-1-3.1h-4l-0.9,3.1h-2l4-12h2l4,12H80.8z M77.8,2.9l-1.5,4.8h3L77.8,2.9z"/>
<polygon id="Path_32_" class="st1" points="84.2,12.3 84.2,0.3 86.2,0.3 86.2,10.6 91.9,10.6 91.9,12.3 "/>
<polygon id="Path_33_" class="st1" points="95.3,2.1 95.3,5.6 99.5,5.6 99.5,7.2 95.3,7.2 95.3,12.3 93.3,12.3 93.3,0.3 100.8,0.3 
	100.8,2.1 "/>
<path id="Shape_33_" class="st1" d="M106.7,12.7c-1.2,0.1-2.5-0.3-3.4-1.2c-0.9-0.9-1.4-2.1-1.3-3.3V4.5c0.1-2.5,2.2-4.4,4.7-4.4
	s4.5,2,4.7,4.4v3.7c0.1,1.2-0.4,2.4-1.3,3.3C109.1,12.3,107.9,12.8,106.7,12.7L106.7,12.7z M109.3,4.4c0.1-1-0.4-1.9-1.3-2.4
	c-0.8-0.5-1.9-0.5-2.7,0c-0.8,0.5-1.3,1.4-1.3,2.4v3.9c-0.1,1,0.4,1.9,1.3,2.4c0.8,0.5,1.9,0.5,2.7,0c0.8-0.5,1.3-1.4,1.3-2.4V4.4z"
	/>
<path id="Shape_34_" class="st1" d="M121.6,12.4c-1.3,0-1.8-0.5-1.8-1.8V8.8c0-1-0.4-1.6-1.8-1.6h-2.6v5.1h-2v-12h4.6
	c2.7,0,3.7,1.2,3.7,3.1V4c0.1,0.6-0.1,1.2-0.5,1.7c-0.4,0.5-1,0.8-1.6,0.8c0.6,0,1.2,0.3,1.6,0.7c0.4,0.4,0.6,1,0.5,1.6v1.6
	c-0.1,0.4,0.2,0.8,0.6,0.9v1.1H121.6z M119.7,3.4c0-0.8-0.4-1.4-1.6-1.4h-2.8v3.8h2.6c1.2,0,1.7-0.6,1.7-1.6V3.4z"/>
<polygon id="Path_34_" class="st1" points="126.2,10.6 132.2,10.6 132.2,12.3 123.4,12.3 123.4,11.6 129.5,2.1 123.7,2.1 123.7,0.3 
	132.3,0.3 132.3,1.1 "/>
<polygon id="Path_35_" class="st1" points="134,12.3 134,0.3 136,0.3 136,12.3 "/>
<path id="Shape_35_" class="st1" d="M145.2,12.3l-1-3.1h-4.1l-0.9,3.1h-2l4-12h2l4.1,12H145.2z M142.2,2.9l-1.5,4.8h3L142.2,2.9z"/>
<path id="Shape_36_" class="st1" d="M320.2,7.7h-2.7v4.6h-2v-12h4.7c2.7,0,3.7,1.4,3.7,3.3v0.9C323.9,6.3,322.8,7.7,320.2,7.7z
	 M321.9,3.6c0-0.9-0.4-1.5-1.6-1.5h-2.8v4h2.8c1.2,0,1.6-0.6,1.6-1.6V3.6z"/>
<polygon id="Path_36_" class="st1" points="325.5,12.3 325.5,0.3 327.3,0.3 327.3,12.3 "/>
<path id="Shape_37_" class="st1" d="M336,12.5c-0.8,0-1.4-0.3-1.4-1.3c-0.7,0.8-1.8,1.3-2.9,1.3c-1.6,0-2.7-0.9-2.7-2.4V10
	c0-2.2,2.5-2.8,5.2-2.6V6.6c0-0.4-0.1-0.8-0.4-1.1c-0.3-0.3-0.7-0.4-1.1-0.4c-1,0-1.7,0.4-1.7,1.3l0,0h-1.6V6.3
	c0-1.4,1.1-2.6,3.2-2.6c2.3,0,3.3,1.3,3.3,3.2v3.7c0,0.4,0.2,0.6,0.7,0.6v1.3L336,12.5z M334.1,8.5c-2.2-0.1-3.4,0.3-3.4,1.4l0,0
	c0,0.6,0.5,1.1,1.3,1.1c1,0,2.1-0.6,2.1-1.5V8.5z"/>
<path id="Path_37_" class="st1" d="M341.3,12.5c-0.9,0.1-1.9-0.2-2.6-0.9s-1.1-1.6-1-2.5V7.2c0-1,0.3-1.9,1-2.5s1.6-1,2.6-0.9
	c1.9,0,3.3,1.1,3.3,3.1l0,0H343V6.6c0-0.4-0.2-0.8-0.5-1.1c-0.3-0.3-0.7-0.4-1.2-0.4c-0.5,0-1,0.2-1.4,0.5c-0.4,0.4-0.5,0.9-0.5,1.4
	v2c-0.1,0.5,0.1,1.1,0.4,1.4c0.4,0.4,0.9,0.6,1.4,0.6c0.4,0,0.9-0.1,1.2-0.4c0.3-0.3,0.5-0.7,0.5-1.1V9.3h1.6v0.1
	c0,0.9-0.3,1.7-1,2.3C343,12.3,342.2,12.6,341.3,12.5L341.3,12.5z"/>
<path id="Shape_38_" class="st1" d="M349.6,12.5c-0.9,0.1-1.9-0.2-2.6-0.9c-0.7-0.7-1.1-1.6-1-2.5V7.2c-0.1-0.9,0.3-1.9,1-2.5
	c0.7-0.7,1.6-1,2.5-0.9c0.9-0.1,1.9,0.2,2.5,0.9c0.7,0.7,1,1.6,0.9,2.5v1h-5.2v1.1c0,0.5,0.2,1,0.6,1.3c0.4,0.3,0.9,0.5,1.3,0.4
	c1.1,0,1.7-0.6,1.7-1.3V9.5h1.6l0,0C353,11.4,351.5,12.5,349.6,12.5z M351.3,6.8c-0.1-0.9-0.9-1.6-1.8-1.6s-1.7,0.7-1.8,1.6v0.6h3.5
	V6.8z"/>
<path id="Shape_39_" class="st1" d="M358.8,12.5c-1.1,0.1-2.2-0.5-2.7-1.6l-0.4,1.4h-1.1v-12h1.8v4.9c0.6-0.9,1.6-1.5,2.7-1.5
	c1.7,0,2.7,1.4,2.7,3.2v2.5c0,0.8-0.3,1.6-0.8,2.2C360.5,12.2,359.7,12.5,358.8,12.5L358.8,12.5z M360.1,7.2c0-1.4-0.6-2-1.8-2
	c-0.5,0-1,0.2-1.4,0.6c-0.4,0.4-0.5,0.9-0.5,1.4v2.1c0,0.5,0.2,1,0.5,1.4c0.3,0.4,0.8,0.6,1.3,0.6c1.1,0,1.8-0.6,1.8-2V7.2z"/>
<path id="Shape_40_" class="st1" d="M367,12.5c-1,0.1-1.9-0.2-2.6-0.9s-1.1-1.6-1-2.5V7.2c0-2,1.6-3.6,3.6-3.6s3.6,1.6,3.6,3.6V9
	c0,1-0.3,1.9-1,2.5C368.9,12.2,367.9,12.6,367,12.5L367,12.5z M368.8,7c0-1-0.8-1.8-1.8-1.8S365.2,6,365.2,7v2.2
	c0,1,0.8,1.8,1.8,1.8s1.8-0.8,1.8-1.8V7z"/>
</svg>
