<?xml version="1.0" encoding="UTF-8"?>
<svg width="250px" height="117px" viewBox="0 0 250 117" version="1.1" xmlns="http://www.w3.org/2000/svg" xmlns:xlink="http://www.w3.org/1999/xlink">
    <title>Logo/Aimmune-RGB</title>
    <g id="Symbols" stroke="none" stroke-width="1" fill="none" fill-rule="evenodd">
        <g id="Desktop/Component/Footer" transform="translate(-1025.000000, -110.000000)" fill="#FFFFFF">
            <g id="Logo/Aimmune-RGB" transform="translate(1025.000000, 110.000000)">
                <g id="Aimmune-logo">
                    <path d="M112.001856,88.8605514 L112.001856,79.7693351 L108.642946,79.7693351 L108.642946,78.1092 L117.306312,78.1092 L117.306312,79.7693351 L113.947401,79.7693351 L113.947401,88.8605514 L112.001856,88.8605514 Z M127.688738,88.8605514 L127.688738,84.1704324 L121.775371,84.1704324 L121.777228,88.8605514 L119.781559,88.8605514 L119.781559,78.1092 L121.775371,78.1092 L121.775371,82.5102973 L127.688738,82.5102973 L127.688738,78.1092 L129.68255,78.1092 L129.68255,88.8605514 L127.688738,88.8605514 Z M133.395421,88.8605514 L133.395421,78.1092 L140.821163,78.1092 L140.821163,79.7693351 L135.296411,79.7693351 L135.296411,82.5577297 L140.707302,82.5577297 L140.707302,84.2172324 L135.296411,84.2172324 L135.296411,87.2004162 L140.821163,87.2004162 L140.821163,88.8605514 L133.395421,88.8605514 Z" id="Shape"></path>
                    <g id="Group">
                        <path d="M150.160272,81.3915243 C150.164078,80.8970942 149.96387,80.4239083 149.608782,80.0880861 C149.253693,79.752264 148.77659,79.5848901 148.294554,79.6270378 L145.677599,79.6270378 L145.677599,83.1560108 L148.295173,83.1560108 C148.777195,83.1983528 149.254344,83.0310248 149.60938,82.6951413 C149.964415,82.3592578 150.164428,81.8859534 150.160272,81.3915243 L150.160272,81.3915243 Z M149.995668,89.0136 L147.576114,84.8699027 L145.677599,84.8699027 L145.677599,89.0136 L143.764851,89.0136 L143.764851,77.9106162 L148.554455,77.9106162 C150.715965,77.9106162 152.118812,79.344973 152.118812,81.3915243 C152.210541,82.9971812 151.091548,84.4104082 149.535891,84.6536108 L152.20297,89.0136 L149.995668,89.0136 Z M159.676361,79.8768486 L157.717822,85.1690432 L161.639851,85.1690432 L159.67698,79.8768486 L159.676361,79.8768486 Z M162.982673,89.0117027 L162.181312,86.8823027 L157.176361,86.8823027 L156.375,89.0117027 L154.199876,89.0117027 L158.486386,77.9106162 L160.871906,77.9106162 L165.158416,89.0117027 L162.982673,89.0117027 Z M174.054455,81.3915243 C174.059191,80.8973665 173.859707,80.4241013 173.50508,80.0881583 C173.150452,79.7522154 172.673599,79.5847779 172.191832,79.6270378 L169.574257,79.6270378 L169.574257,83.1560108 L172.191832,83.1560108 C172.673599,83.1982707 173.150452,83.0308333 173.50508,82.6948903 C173.859707,82.3589474 174.059191,81.8856821 174.054455,81.3915243 Z M167.66151,89.0136 L167.66151,77.9106162 L172.451114,77.9106162 C173.705203,77.8509768 174.88984,78.5007575 175.534404,79.6018208 C176.178968,80.7028841 176.17909,82.0769424 175.534722,83.1781254 C174.890353,84.2793084 173.705833,84.9293091 172.451733,84.8699027 L169.574257,84.8699027 L169.576733,89.0136 L167.66151,89.0136 Z M178.915842,89.0123351 L178.915842,77.9118811 L186.389851,77.9118811 L186.389851,79.625773 L180.829208,79.625773 L180.829208,82.5046054 L186.272896,82.5046054 L186.272896,84.2184973 L180.829208,84.2184973 L180.829208,87.2984432 L186.389851,87.2984432 L186.389851,89.0123351 L178.915842,89.0123351 Z M189.660272,84.6352703 L189.660272,77.9112486 L191.590965,77.9112486 L191.590965,84.5713946 C191.590965,86.3339838 192.556312,87.4824811 194.387995,87.4824811 C196.203589,87.4824811 197.167698,86.3339838 197.167698,84.5713946 L197.167698,77.9112486 L199.097772,77.9112486 L199.097772,84.6181946 C199.097772,87.3806595 197.542698,89.2109189 194.388614,89.2109189 C191.214109,89.2109189 189.660891,87.3642162 189.660891,84.6352703 L189.660272,84.6352703 Z M205.331683,89.0123351 L205.331683,79.625773 L202.025371,79.625773 L202.025371,77.9118811 L210.548886,77.9118811 L210.548886,79.625773 L207.244431,79.625773 L207.244431,89.0129676 L205.331683,89.0123351 Z" id="Shape"></path>
                        <path d="M213.475866,89.0123351 L215.389851,89.0123351 L215.389851,77.9118811 L213.476485,77.9118811 L213.475866,89.0123351 Z M218.249381,83.4703297 C218.213365,81.9173525 218.808649,80.4185559 219.893575,79.3306027 C220.978501,78.2426496 222.456055,77.6628252 223.974629,77.7291081 C225.771867,77.6827787 227.451262,78.6400823 228.357054,80.2272162 L226.723391,81.0746757 C226.143337,80.0854763 225.102941,79.4743561 223.974629,79.4600757 C221.87164,79.5513059 220.212723,81.3203687 220.212889,83.4715815 C220.213055,85.6227943 221.872245,87.3915897 223.975248,87.4824811 C225.104968,87.4753193 226.148077,86.8625695 226.722772,85.8685135 L228.357054,86.715973 C227.446924,88.2982675 225.770083,89.2531469 223.974629,89.2115514 C222.456055,89.2778362 220.9785,88.6980124 219.893573,87.6100588 C218.808647,86.5221053 218.213364,85.0233075 218.249381,83.4703297 L218.249381,83.4703297 Z M230.503094,87.4489622 L231.566832,85.9507297 C232.458056,86.9294315 233.707915,87.4844703 235.016089,87.4824811 C236.586015,87.4824811 237.20854,86.6982649 237.20854,85.9678054 C237.20854,83.6372919 230.846535,85.0842973 230.846535,80.991827 C230.846535,79.1590378 232.43255,77.7461838 234.818688,77.7461838 C236.328444,77.6857588 237.799613,78.2421656 238.907178,79.2924811 L237.811881,80.7413838 C236.964619,79.9091623 235.829015,79.4542926 234.654084,79.4765189 C233.52599,79.4765189 232.805693,80.0254703 232.805693,80.8583838 C232.80755,82.9213784 239.152847,81.6400703 239.152847,85.7837676 C239.152847,87.6304703 237.878713,89.2115514 234.935025,89.2115514 C233.28014,89.2919925 231.669501,88.6514376 230.503094,87.4489622 L230.503094,87.4489622 Z M130.693688,44.8457838 C127.41646,44.8457838 124.905941,46.8986595 123.952351,47.8093622 C123.624166,47.3200189 123.233548,46.8776273 122.790842,46.4939027 C121.444746,45.3813464 119.754041,44.7968506 118.023515,44.8457838 C115.683168,44.8457838 113.651609,46.6020486 112.460396,47.4855568 L112.460396,44.7989838 L108.415223,46.5046541 L108.415223,70.2758919 L112.460396,70.2758919 L112.460396,52.5886541 C113.772277,50.726773 116.108292,48.8256811 117.802599,48.8256811 C120.103342,48.8256811 121.086015,50.0424811 121.086015,52.8960162 L121.086015,70.2752595 L125.130569,70.2752595 L125.130569,52.5696811 C126.355198,50.7495405 128.769802,48.8256811 130.472772,48.8256811 C132.773515,48.8256811 133.758045,50.0424811 133.758045,52.8960162 L133.758045,70.2752595 L137.800743,70.2752595 L137.800743,52.8960162 C137.800743,47.6272216 135.344059,44.8451514 130.693688,44.8451514 L130.693688,44.8457838 Z M86.2382426,44.8046757 C82.9616337,44.8046757 80.4529703,46.8569189 79.4993812,47.7707838 C79.1710736,47.2802076 78.7797875,46.8369157 78.3360149,46.4527946 C76.9898847,45.3398561 75.2988462,44.7553208 73.5680693,44.8046757 C71.2283416,44.8046757 69.1986386,46.5603081 68.0074257,47.4438162 L68.0074257,44.6965297 L63.9647277,46.4040973 L63.9647277,70.2341514 L68.0074257,70.2341514 L68.0074257,52.5475459 C69.3193069,50.6875622 71.6528465,48.784573 73.3477723,48.784573 C75.6497525,48.784573 76.634901,50.0007405 76.634901,52.8542757 L76.634901,70.2341514 L80.677599,70.2341514 L80.677599,52.528573 C81.9022277,50.7084324 84.3168317,48.784573 86.0179455,48.784573 C88.3199257,48.784573 89.3050743,50.0007405 89.3050743,52.8542757 L89.3050743,70.2341514 L93.3477723,70.2341514 L93.3477723,52.8549081 C93.3477723,47.5880108 90.8892327,44.8040432 86.2382426,44.8040432 L86.2382426,44.8046757 Z M196.128094,44.8046757 C194.058168,44.8046757 191.733292,46.2086757 189.673886,47.6664324 L189.673886,44.7426973 L185.628713,46.4502649 L185.628713,70.317 L189.673886,70.317 L189.673886,52.4899946 C191.079208,50.6812378 193.731436,48.7852054 195.948639,48.7852054 C199.030322,48.7852054 200.172649,50.024773 200.172649,53.3545297 L200.172649,70.317 L204.219678,70.317 L204.219678,53.3545297 C204.219678,47.6816108 201.49505,44.8040432 196.128094,44.8040432 L196.128094,44.8046757 Z M45.2747525,70.1943081 L49.3199257,70.1943081 L49.3199257,45.3473027 L45.2747525,45.3473027 L45.2747525,70.1943081 Z M47.2970297,35.7779631 C45.9367302,35.784754 44.8387951,36.9161642 44.8433786,38.3064136 C44.8479908,39.6966631 45.9533843,40.820462 47.3136977,40.8178549 C48.674011,40.8152387 49.7752654,39.6872032 49.7747527,38.2969459 C49.7701154,36.9025326 48.6614174,35.7753741 47.2970297,35.7779631 L47.2970297,35.7779631 Z M166.89047,62.7929514 C165.485149,64.6017081 162.834777,66.4977405 160.615718,66.4977405 C157.53651,66.4977405 156.391089,65.258173 156.391089,61.9265189 L156.391089,44.9254703 L152.346535,44.9254703 L152.346535,61.9265189 C152.346535,67.6038649 155.06745,70.4782703 160.436262,70.4782703 C162.508045,70.4782703 164.835396,69.0742703 166.89047,67.6165135 L166.89047,70.2917027 L170.935025,70.2853784 L170.935025,44.9254703 L166.89047,44.9254703 L166.89047,62.7929514 Z M26.6089109,59.1431838 L26.6089109,63.9648486 C25.0123762,65.5029243 22.5241337,66.3820054 19.7611386,66.3820054 C16.1844059,66.3820054 13.6862624,65.2594378 13.6862624,62.6240919 C13.6862624,59.0394649 18.3997525,58.6517838 19.8428218,58.6201622 C20.0903465,58.6138378 20.3378713,58.6108865 20.585396,58.6112686 C22.6043035,58.6150085 24.6193,58.7929324 26.6089109,59.1431838 L26.6089109,59.1431838 Z M20.9461634,45.4130757 C16.6342822,45.4130757 13.7011139,46.5786486 10.822401,49.4302865 L9.66831683,50.571827 L13.0934406,53.0952324 L13.9090347,52.2648486 C15.7316734,50.2982473 18.2980542,49.2342925 20.9461634,49.3474378 C23.7648515,49.3474378 26.6082921,50.5427351 26.6082921,53.2134973 L26.6082921,55.1310324 C24.5163825,54.8403309 22.4075695,54.6951699 20.2964109,54.6965514 C18.4517561,54.6262468 16.6101526,54.9027798 14.8632426,55.5123892 C14.0360707,55.8312699 13.2529145,56.2585719 12.5334158,56.7835784 C10.2512376,58.4607892 9.27722772,60.2088324 9.27722772,62.6240919 C9.27722772,68.0851459 14.4653465,70.3138378 19.3490099,70.3138378 C21.8811376,70.4022977 24.3895755,69.7895738 26.6089109,68.5404973 L26.6089109,70.2904378 L30.862005,70.2967622 L30.862005,53.169227 C30.862005,48.3855081 27.0625,45.4137081 20.9461634,45.4137081 L20.9461634,45.4130757 Z M220.778465,55.0488162 C221.28359,52.1787191 223.332537,49.8469132 226.070545,49.0261622 C226.611001,48.8715915 227.169007,48.7903647 227.730198,48.784573 L227.753094,48.5347622 L227.753094,48.784573 C231.457032,48.8432145 234.532785,51.7236707 234.912748,55.4896216 L220.686881,55.5465405 C220.715965,55.3776811 220.745668,55.2119838 220.778465,55.0488162 L220.778465,55.0488162 Z M235.099629,63.3469622 L234.787748,63.6884757 C233.784313,64.828544 232.506736,65.6807679 231.081683,66.1606541 C229.438218,66.6900317 227.681029,66.7288671 226.016708,66.2725946 C223.17698,65.4276649 221.191213,62.9105838 220.68255,59.5277027 L239.163366,59.4518108 L239.157178,57.6209189 C239.152837,57.0530141 239.118754,56.4857538 239.055074,55.921573 C238.841176,53.306135 237.884038,50.8116012 236.301361,48.7447297 C236.205446,48.6258324 236.105198,48.5176865 235.993193,48.3930973 L235.868193,48.2615514 C234.515574,46.7481013 232.754267,45.6784882 230.806931,45.1879297 C229.811197,44.9312379 228.788059,44.8022833 227.761139,44.8040255 C224.643494,44.8162782 221.679097,46.1875336 219.612624,48.5733405 C215.214322,53.8647988 215.23821,61.6406342 219.668936,66.9037622 C221.904328,69.2981042 225.017259,70.6284656 228.25495,70.5731351 L228.306931,70.5731351 C229.328082,70.5752492 230.34623,70.4600558 231.342203,70.2297243 C233.465652,69.713087 235.409747,68.6110357 236.962871,67.0435297 C237.165223,66.8487405 237.365099,66.6495243 237.564975,66.4363946 L237.804455,66.1815243 L235.100248,63.3469622 L235.099629,63.3469622 Z M241.294554,46.7405514 L242.532797,46.7405514 L242.532797,50.2872324 L243.263614,50.2872324 L243.263614,46.7405514 L244.511139,46.7405514 L244.511139,46.0480378 L241.294554,46.0480378 L241.294554,46.7405514 Z M248.673886,46.0474054 L247.533416,48.8484486 L246.399134,46.0474054 L245.497525,46.0474054 L245.497525,50.2847027 L246.227723,50.2847027 L246.227723,47.5070595 L247.352104,50.2847027 L247.714728,50.2847027 L248.845297,47.5051622 L248.845297,50.2847027 L249.579827,50.2847027 L249.579827,46.0474054 L248.673886,46.0474054 Z" id="Shape"></path>
                        <path d="M51.6844059,0 C23.1899752,0 0.010519802,23.582773 0,52.5696811 C0.493228378,50.2935798 1.13239657,48.0530958 1.91336634,45.8627351 C5.31156773,20.4326771 26.5710566,1.47959603 51.6844059,1.49127568 C79.375,1.49127568 101.905322,24.4131568 101.905322,52.5949784 C101.905322,80.7730054 79.375,103.696784 51.6844059,103.696784 C28.3272642,103.700158 8.04756239,87.2544659 2.74195545,64.0072216 C2.74195545,64.0957622 2.73576733,64.1849351 2.73576733,64.2741081 C2.74034472,66.4228941 2.88007176,68.5691572 3.15408416,70.6996216 C10.6879451,91.4318684 30.0448506,105.187242 51.6844059,105.186162 C80.1806931,105.186162 103.368812,81.5945351 103.368812,52.5949784 C103.368812,23.5935243 80.1806931,0 51.6844059,0" id="Shape"></path>
                        <path d="M51.6844059,116.867189 C80.1769802,116.867189 103.358292,93.2844162 103.368812,64.2956108 C102.876833,66.5720392 102.237641,68.8126066 101.455446,71.0025568 C98.0580842,96.4333653 76.7983693,115.387458 51.6844059,115.375914 C23.9913366,115.375914 1.4634901,92.4521351 1.4634901,64.2722108 C1.4634901,36.0948162 23.9913366,13.1685081 51.6844059,13.1685081 C75.0418869,13.1659599 95.321444,29.6123211 100.626856,52.8599676 C100.626856,52.771427 100.633045,52.6822541 100.633045,52.5930811 C100.62802,50.4442275 100.487465,48.2979396 100.212252,46.1675676 C92.681077,25.4340488 73.3241932,11.6772322 51.6844059,11.6791297 C23.1856436,11.6791297 0,35.2726541 0,64.2722108 C0,93.2742973 23.1856436,116.867189 51.6844059,116.867189" id="Shape"></path>
                    </g>
                </g>
            </g>
        </g>
    </g>
</svg>