<?xml version="1.0" encoding="UTF-8"?>
<svg viewBox="0 0 18 18" version="1.1" xmlns="http://www.w3.org/2000/svg" xmlns:xlink="http://www.w3.org/1999/xlink">
    <g id="Symbols" stroke="none" stroke-width="1" fill="none" fill-rule="evenodd">
        <g id="Button/Download-PDF" transform="translate(-226.000000, -13.000000)" fill="#FFFFFF" fill-rule="nonzero">
            <g id="Group" transform="translate(61.000000, 12.000000)">
                <g id="noun_Download_1247030" transform="translate(165.000000, 1.000000)">
                    <path d="M17.1585366,12.8323171 C16.7796827,12.8323171 16.472561,13.1394388 16.472561,13.5182927 L16.472561,16.1341463 C16.4750302,16.2254735 16.440469,16.3139192 16.3767343,16.3793764 C16.3129996,16.4448336 16.2255069,16.4817407 16.1341463,16.4817073 L1.7195122,16.4817073 C1.53261095,16.4817073 1.38109756,16.3301939 1.38109756,16.1432927 L1.38109756,13.5 C1.38109756,13.1211461 1.07397582,12.8140244 0.695121951,12.8140244 C0.316268083,12.8140244 0.00914634146,13.1211461 0.00914634146,13.5 L0.00914634146,16.1158537 C0.00914634146,17.0619536 0.773425649,17.8303334 1.7195122,17.8353659 L16.1341463,17.8353659 C17.0766764,17.8303656 17.8395119,17.06753 17.8445122,16.125 L17.8445122,13.5 C17.8345969,13.1283086 17.5303602,12.8321848 17.1585366,12.8323171 Z" id="Path"></path>
                    <path d="M8.41463415,13.5 L8.47865854,13.5 C8.59177368,13.6081049 8.74294598,13.6672593 8.89939024,13.6646341 L8.89939024,13.6646341 C9.07616651,13.6743679 9.24986064,13.6153774 9.38414634,13.5 L13.5,9.38414634 C13.6835242,9.21313666 13.7590694,8.95558944 13.696999,8.71254063 C13.6349286,8.46949182 13.4451423,8.27970558 13.2020935,8.21763518 C12.9590447,8.15556477 12.7014975,8.2311099 12.5304878,8.41463415 L9.58536585,11.3597561 L9.58536585,0.695121951 C9.58536586,0.450046463 9.45461965,0.22358737 9.24237806,0.101049623 C9.03013646,-0.0214881242 8.76864403,-0.0214881242 8.55640243,0.101049623 C8.34416083,0.22358737 8.21341462,0.450046463 8.21341463,0.695121951 L8.21341463,11.3871951 L5.32317073,8.4695122 C5.05288742,8.21765958 4.63169843,8.22509097 4.37046787,8.48632153 C4.10923731,8.74755208 4.10180592,9.16874108 4.35365854,9.43902439 L8.41463415,13.5 Z" id="Path"></path>
                </g>
            </g>
        </g>
    </g>
</svg>