<?xml version="1.0" encoding="UTF-8"?>
<svg viewBox="0 0 11 11" version="1.1" xmlns="http://www.w3.org/2000/svg" xmlns:xlink="http://www.w3.org/1999/xlink">
    <g id="Symbols" stroke="none" stroke-width="1" fill="none" fill-rule="evenodd">
        <g id="Button/Visit-Patient-Site" transform="translate(-170.000000, -10.000000)" fill="#FFFFFF" fill-rule="nonzero">
            <g id="Desktop/Button/Ghost---Small">
                <g id="Group" transform="translate(18.000000, 6.000000)">
                    <g id="Icon/Outside_link" transform="translate(152.000000, 4.000000)">
                        <g id="Link-out">
                            <path d="M5.77947154,5.5 C5.89061478,5.49990216 5.99717018,5.45567161 6.07571138,5.37703252 L10.0218496,1.43089431 L10.0218496,3.47103659 C10.0218496,3.70255839 10.2095351,3.8902439 10.4410569,3.8902439 C10.6725787,3.8902439 10.8602642,3.70255839 10.8602642,3.47103659 L10.8602642,0.419207317 C10.8602642,0.187685509 10.6725787,0 10.4410569,0 L7.38922764,0 C7.15770583,0 6.97002033,0.187685509 6.97002033,0.419207317 C6.97002033,0.650729125 7.15770583,0.838414634 7.38922764,0.838414634 L9.42936992,0.838414634 L5.45528455,4.78455285 C5.3355476,4.90443877 5.29975406,5.08461702 5.36457537,5.2411666 C5.42939668,5.39771618 5.58208546,5.49985097 5.75152439,5.5 L5.77947154,5.5 Z" id="Path"></path>
                            <path d="M10.4857724,5.90243902 C10.2542505,5.90243902 10.066565,6.09012453 10.066565,6.32164634 L10.066565,9.7870935 C10.066565,9.93835441 9.94394384,10.0609756 9.79268293,10.0609756 L1.11788618,10.0609756 C0.966625264,10.0609756 0.844004065,9.93835441 0.844004065,9.7870935 L0.844004065,1.11229675 C0.844004065,0.961035833 0.966625264,0.838414634 1.11788618,0.838414634 L4.39888211,0.838414634 C4.63040392,0.838414629 4.81808942,0.650729122 4.81808942,0.419207317 C4.81808942,0.187685512 4.63040392,1.42108547e-14 4.39888211,1.42108547e-14 L1.11788618,1.42108547e-14 C0.50049469,1.42108547e-14 -1.3500312e-13,0.50049469 -1.3500312e-13,1.11788618 L-1.3500312e-13,9.7870935 C-1.3500312e-13,10.404485 0.50049469,10.9049797 1.11788618,10.9049797 L9.79268293,10.9049797 C10.4100744,10.9049797 10.9105691,10.404485 10.9105691,9.7870935 L10.9105691,6.32164634 C10.9105691,6.20949041 10.8656463,6.1020075 10.7858166,6.02322821 C10.7059869,5.94444892 10.5979183,5.90094361 10.4857724,5.90243902 Z" id="Path"></path>
                        </g>
                    </g>
                </g>
            </g>
        </g>
    </g>
</svg>