<?xml version="1.0" encoding="utf-8"?>
<!-- Generator: Adobe Illustrator 24.0.2, SVG Export Plug-In . SVG Version: 6.00 Build 0)  -->
<svg version="1.1" id="Layer_1" xmlns="http://www.w3.org/2000/svg" xmlns:xlink="http://www.w3.org/1999/xlink" x="0px" y="0px"
	 viewBox="0 0 120 120" style="enable-background:new 0 0 120 120;" xml:space="preserve">
<style type="text/css">
	.st0{fill-rule:evenodd;clip-rule:evenodd;fill:#F8F7FA;stroke:#51307D;stroke-opacity:4.000000e-02;}
	.st1{fill:#4C7ED9;}
	.st2{fill-rule:evenodd;clip-rule:evenodd;fill:#51307D;}
</style>
<ellipse id="Oval-Copy-10" class="st0" cx="60" cy="59.8" rx="60" ry="59.8"/>
<g id="Group-9" transform="translate(22.000000, 22.489867)">
	<g id="target-icon">
		<path id="Shape" class="st1" d="M37.5,75C27.1,75,18.2,71.2,11,64.1C3.6,56.7,0,47.7,0,37.4s3.8-19.3,11-26.5
			C18.4,3.6,27.3,0,37.5,0C47.9,0,56.8,3.8,64,10.9c7.4,7.4,11,16.3,11,26.5c0,10.3-3.8,19.3-11,26.5C56.8,71.2,47.9,75,37.5,75z
			 M37.5,7.8c-8.2,0-15.2,2.8-20.9,8.8C10.8,22.3,8,29,8,37.4c0,8.2,2.8,15.1,8.8,20.9c5.8,5.8,12.8,8.8,20.9,8.8s15.2-2.8,20.9-8.8
			c5.8-5.8,8.8-12.7,8.8-20.9s-2.8-15.1-8.8-20.9C52.7,10.5,45.9,7.8,37.5,7.8z"/>
		<path id="Shape_1_" class="st1" d="M37.5,61c-6.6,0-12.5-2.4-17.3-7.1C15.4,49.1,13,43.3,13,36.6s2.4-12.5,7-17.3
			c5-4.8,10.8-7.3,17.5-7.3s12.5,2.4,17.3,7.1c4.8,4.8,7.2,10.7,7.2,17.3s-2.4,12.5-7,17.3C50.2,58.6,44.3,61,37.5,61z M37.5,20.1
			c-4.6,0-8.4,1.6-11.6,4.8S21,32,21,36.6s1.6,8.5,4.8,11.7s7,4.8,11.6,4.8s8.4-1.6,11.6-4.8S54,41.2,54,36.6s-1.6-8.5-4.8-11.7
			S42.1,20.1,37.5,20.1z"/>
		<path id="Path" class="st2" d="M45.8,29.2C48,31.5,49,34.1,49,37c0,3.2-1,5.8-3.2,7.8C43.5,47,40.9,48,38,48c-3.2,0-5.8-1-7.8-3.2
			C28,42.5,27,39.9,27,37c0-3.2,1-5.8,3.2-7.8C32.5,27,35.1,26,38,26S43.5,27.3,45.8,29.2z"/>
	</g>
</g>
</svg>
