<?xml version="1.0" encoding="utf-8"?>
<!-- Generator: Adobe Illustrator 24.0.2, SVG Export Plug-In . SVG Version: 6.00 Build 0)  -->
<svg version="1.1" id="Layer_1" xmlns="http://www.w3.org/2000/svg" xmlns:xlink="http://www.w3.org/1999/xlink" x="0px" y="0px"
	 viewBox="0 0 122 122" style="enable-background:new 0 0 122 122;" xml:space="preserve">
<style type="text/css">
	.st0{fill-rule:evenodd;clip-rule:evenodd;fill:#F8F7FA;stroke:#51307D;stroke-opacity:4.000000e-02;}
	.st1{filter:url(#Adobe_OpacityMaskFilter);}
	.st2{fill-rule:evenodd;clip-rule:evenodd;fill:#FFFFFF;}
	.st3{mask:url(#mask-2_1_);fill-rule:evenodd;clip-rule:evenodd;fill:#5F2586;}
	.st4{filter:url(#Adobe_OpacityMaskFilter_1_);}
	.st5{mask:url(#mask-4_1_);fill-rule:evenodd;clip-rule:evenodd;fill:#4659CC;}
</style>
<ellipse id="Oval-Copy-10" class="st0" cx="61" cy="60.8" rx="60" ry="59.8"/>
<g id="Group-9" transform="translate(25.000000, 23.489867)">
	<g id="Group-3" transform="translate(0.000000, 0.406782)">
		<g id="Clip-2">
		</g>
		<defs>
			<filter id="Adobe_OpacityMaskFilter" filterUnits="userSpaceOnUse" x="1" y="1.4" width="72.7" height="70.3">
				<feColorMatrix  type="matrix" values="1 0 0 0 0  0 1 0 0 0  0 0 1 0 0  0 0 0 1 0"/>
			</filter>
		</defs>
		<mask maskUnits="userSpaceOnUse" x="1" y="1.4" width="72.7" height="70.3" id="mask-2_1_">
			<g class="st1">
				<polygon id="path-1_1_" class="st2" points="1,1.4 73.7,1.4 73.7,71.7 1,71.7 				"/>
			</g>
		</mask>
		<path id="Fill-1" class="st3" d="M73.7,36.6c0,1.9-0.2,3.7-0.5,5.6C70.9,56.5,59.5,68,45,70.9c-2.5,0.5-5,0.8-7.7,0.8
			c-0.7,0-1.4,0-2-0.1c-1.2-0.1-2.5-0.2-3.7-0.4c-0.4-0.1-0.7-0.1-1.1-0.2C30,71,29.5,70.9,29,70.8c-0.4-0.1-0.8-0.2-1.2-0.3
			c-0.5-0.1-1-0.3-1.5-0.4c-0.3-0.1-0.7-0.2-1-0.3c-0.4-0.1-0.8-0.3-1.2-0.5c0,0-0.1,0-0.1,0c-0.7-0.2-1.3-0.5-1.9-0.8
			c-0.7-0.3-1.3-0.6-1.9-0.9C8.7,61.6,1,50,1,36.6C1,17.2,17.3,1.4,37.3,1.4c13,0,24.5,6.7,30.9,16.7c0.4,0.6,0.8,1.2,1.1,1.8
			c0.3,0.6,0.7,1.2,1,1.9C72.5,26.3,73.7,31.3,73.7,36.6"/>
	</g>
	<g id="Group-6" transform="translate(20.707518, 19.023460)">
		<g id="Clip-5">
		</g>
		<defs>
			<filter id="Adobe_OpacityMaskFilter_1_" filterUnits="userSpaceOnUse" x="1.3" y="1.3" width="51.6" height="51.8">
				<feColorMatrix  type="matrix" values="1 0 0 0 0  0 1 0 0 0  0 0 1 0 0  0 0 0 1 0"/>
			</filter>
		</defs>
		<mask maskUnits="userSpaceOnUse" x="1.3" y="1.3" width="51.6" height="51.8" id="mask-4_1_">
			<g class="st4">
				<polygon id="path-3_1_" class="st2" points="1.3,1.3 53,1.3 53,53.1 1.3,53.1 				"/>
			</g>
		</mask>
		<path id="Fill-4" class="st5" d="M48.6,1.3H24.3v22.2h-23v26.3c0.7,0.3,1.3,0.6,2,0.8c0.4,0.2,0.8,0.3,1.2,0.5
			c0.3,0.1,0.7,0.2,1,0.3c0.5,0.2,1,0.3,1.5,0.4c0.4,0.1,0.8,0.2,1.2,0.3c0.5,0.1,1,0.2,1.6,0.3c0.4,0.1,0.7,0.1,1.1,0.2
			c1.2,0.2,2.4,0.3,3.7,0.4c0.7,0,1.4,0.1,2,0.1c2.6,0,5.2-0.3,7.7-0.8c14.6-3,25.9-14.5,28.2-28.8c0.3-1.8,0.5-3.7,0.5-5.6
			C53,12,51.4,6.3,48.6,1.3"/>
	</g>
	<path id="Fill-7" class="st2" d="M45,24c-2.1,0-3.8-1.7-3.8-3.7s1.7-3.7,3.8-3.7c2.1,0,3.8,1.7,3.8,3.7S47.1,24,45,24 M22,46.2
		c-2.1,0-3.8-1.7-3.8-3.7s1.7-3.7,3.8-3.7c2.1,0,3.8,1.7,3.8,3.7S24.1,46.2,22,46.2 M69.3,20.3c-0.3-0.6-0.7-1.2-1.1-1.8H52.4
		c-0.9-3.2-3.8-5.6-7.4-5.6c-4.2,0-7.7,3.3-7.7,7.4c0,3.4,2.4,6.3,5.7,7.1v13.2H29.4c-0.9-3.2-3.8-5.6-7.4-5.6
		c-4.2,0-7.6,3.3-7.6,7.4c0,3.4,2.4,6.3,5.7,7.1v18.2c0.6,0.4,1.3,0.6,1.9,0.9c0.6,0.3,1.3,0.6,1.9,0.8v-20c2.7-0.7,4.8-2.7,5.5-5.3
		h17.5V27.5c2.7-0.7,4.8-2.7,5.5-5.3h17.9C70,21.6,69.7,21,69.3,20.3"/>
</g>
</svg>
