<?xml version="1.0" encoding="UTF-8"?>
<svg width="160px" height="70px" viewBox="0 0 160 70" version="1.1" xmlns="http://www.w3.org/2000/svg" xmlns:xlink="http://www.w3.org/1999/xlink">
    <title>Palforzia_Pathway_Logo</title>
    <g id="Technical-Layout" stroke="none" stroke-width="1" fill="none" fill-rule="evenodd">
        <g id="0.0-Desktop---Homepage---Fullpage" transform="translate(-205.000000, -3485.000000)">
            <g id="Desktop/Card/Card-5" transform="translate(0.000000, 3211.000000)">
                <g id="Logo/Palforzia-Pathway" transform="translate(205.000000, 274.000000)">
                    <g id="Palforzia_Pathway_Logo_TM_4C_FPO">
                        <path d="M18.8974545,36.8235294 L28.9221818,36.8235294 C33.9723636,36.8235294 36.0785455,39.2117647 36.0785455,43.0294118 C36.0785455,49.8294118 31.8312727,53.3882353 25.7629091,53.3882353 L20.3636364,53.3882353 L18.7636364,62.5352941 L14.4290909,62.5352941 L18.8974545,36.8235294 Z M21.0036364,49.5705882 L26.2690909,49.5705882 C28.9221818,49.5705882 31.5752727,48.1352941 31.5752727,43.7647059 C31.5752727,41.8176471 30.5978182,40.6470588 28.1250909,40.6470588 L22.528,40.6470588 L21.0036364,49.5705882 Z" id="Shape" fill="#5FC5BF" fill-rule="nonzero"></path>
                        <path d="M54.4058182,43.6176471 L52.0436364,56.9882353 C51.7876364,58.3470588 51.9330909,59.1941176 53.2072727,59.1941176 C53.7606528,59.1756778 54.3097133,59.0887556 54.8421818,58.9352941 L54.2603636,62.2411765 C53.2136046,62.6408376 52.1088741,62.8634257 50.9905455,62.9 C49.28,62.9 48.2676364,62.1294118 47.936,60.5176471 C46.4429651,62.1176042 44.3383412,62.9863278 42.1643636,62.9 C37.9810909,62.9 35.584,60.1823529 36.4218182,55.3705882 L37.2363636,50.5882353 C38.0683636,45.7823529 40.8669091,43.2823529 45.0443636,43.2823529 C47.4414545,43.2823529 49.3323636,44.0882353 50.2807273,45.7058824 L51.2290909,43.6470588 L54.4058182,43.6176471 Z M40.4421818,55.6647059 C40.0407273,57.9823529 41.4196364,59.3764706 43.5316364,59.3764706 C45.956751,59.4144026 48.0288105,57.6173205 48.3607273,55.1882353 L49.1578182,50.6705882 C49.5941818,48.2823529 47.9592727,46.7764706 45.5272727,46.7764706 C43.0952727,46.7764706 41.7861818,47.9882353 41.3847273,50.2705882 L40.4421818,55.6647059 Z" id="Shape" fill="#5FC5BF" fill-rule="nonzero"></path>
                        <path d="M63.296,55.8823529 C62.7490909,59.0058824 63.6567273,59.7764706 67.9098182,59.1529412 L67.3629091,62.5294118 C59.4792727,63.9588235 58.3563636,60.9882353 59.264,55.7705882 L60.7534545,47.1411765 L57.4836364,47.1411765 L58.1003636,43.6117647 L61.4050909,43.6117647 L62.3883636,37.9235294 L66.6356364,36.7117647 L65.4370909,43.6117647 L70.6327273,43.6117647 L70.016,47.1411765 L64.8203636,47.1411765 L63.296,55.8823529 Z" id="Path" fill="#5FC5BF" fill-rule="nonzero"></path>
                        <path d="M82.2225455,62.5352941 L84.3287273,50.2294118 C84.7301818,47.8411765 83.3105455,46.7764706 81.2392727,46.7764706 C78.818526,46.6998343 76.7259911,48.4712817 76.3752727,50.8941176 L74.3738182,62.5352941 L70.3418182,62.5352941 L75.0661818,35.3588235 L79.1272727,35.3588235 L77.4574545,45.0176471 C78.881526,43.8196414 80.6909555,43.1917056 82.5425455,43.2529412 C86.6850909,43.2529412 89.1869091,45.6411765 88.3607273,50.4882353 L86.2894545,62.5352941 L82.2225455,62.5352941 Z" id="Path" fill="#5FC5BF" fill-rule="nonzero"></path>
                        <polygon id="Path" fill="#5FC5BF" fill-rule="nonzero" points="94.0276364 62.5352941 91.8109091 43.6176471 95.7730909 43.6176471 97.1927273 57.5411765 103.365818 43.6176471 107.397818 43.6176471 108.741818 57.5411765 114.990545 43.6176471 119.133091 43.6176471 110.341818 62.5352941 105.797818 62.5352941 104.418909 49.7529412 98.6007273 62.5352941"></polygon>
                        <path d="M136.989091,43.6176471 L134.626909,56.9882353 C134.376727,58.3470588 134.522182,59.1941176 135.790545,59.1941176 C136.343998,59.1764529 136.893152,59.0895159 137.425455,58.9352941 L136.843636,62.2411765 C135.797172,62.6418773 134.692269,62.8645002 133.573818,62.9 C131.869091,62.9 130.850909,62.1294118 130.525091,60.5176471 C129.028059,62.1152812 126.922803,62.9833909 124.747636,62.9 C120.570182,62.9 118.173091,60.1823529 119.010909,55.3705882 L119.854545,50.5882353 C120.692364,45.7823529 123.490909,43.2823529 127.668364,43.2823529 C130.065455,43.2823529 131.950545,44.0882353 132.904727,45.7058824 L133.847273,43.6470588 L136.989091,43.6176471 Z M123.025455,55.6647059 C122.629818,57.9823529 124.008727,59.3764706 126.114909,59.3764706 C128.542226,59.4174062 130.617641,57.61958 130.949818,55.1882353 L131.746909,50.6705882 C132.183273,48.2823529 130.548364,46.7764706 128.116364,46.7764706 C125.684364,46.7764706 124.369455,47.9882353 123.973818,50.2705882 L123.025455,55.6647059 Z" id="Shape" fill="#5FC5BF" fill-rule="nonzero"></path>
                        <polygon id="Path" fill="#5FC5BF" fill-rule="nonzero" points="139.997091 69.8823529 143.959273 62.5352941 143.709091 62.5352941 140.148364 43.6176471 144.256 43.6176471 146.798545 57.9823529 154.315636 43.6176471 158.603636 43.6176471 144.541091 69.8823529"></polygon>
                        <ellipse id="Oval" fill="#4F2984" fill-rule="nonzero" cx="72.4829091" cy="3.37647059" rx="1.72218182" ry="1.74117647"></ellipse>
                        <ellipse id="Oval" fill="#5172B8" fill-rule="nonzero" cx="80.2618182" cy="3.38235294" rx="1.89090909" ry="1.91176471"></ellipse>
                        <ellipse id="Oval" fill="#567EBF" fill-rule="nonzero" cx="89.2101818" cy="3.38823529" rx="2.34472727" ry="2.37058824"></ellipse>
                        <ellipse id="Oval" fill="#598FAB" fill-rule="nonzero" cx="98.8974545" cy="3.39411765" rx="2.688" ry="2.71764706"></ellipse>
                        <ellipse id="Oval" fill="#5CB0B7" fill-rule="nonzero" cx="109.166545" cy="3.36470588" rx="2.89745455" ry="2.92941176"></ellipse>
                        <ellipse id="Oval" fill="#5FC5BF" fill-rule="nonzero" cx="120.564364" cy="3.40588235" rx="3.01963636" ry="3.05294118"></ellipse>
                        <path d="M4.90472727,3.02352941 L15.1272727,3.02352941 C20.2763636,3.02352941 22.4290909,5.45882353 22.4290909,9.35882353 C22.4290909,16.2882353 18.0887273,19.9470588 11.8981818,19.9470588 L6.4,19.9470588 L4.77090909,29.2823529 L0.349090909,29.2823529 L4.90472727,3.02352941 Z M7.05745455,16.0294118 L12.4334545,16.0294118 C15.1389091,16.0294118 17.8443636,14.5647059 17.8443636,10.1058824 C17.8443636,8.12352941 16.8436364,6.92352941 14.3534545,6.92352941 L8.61090909,6.92352941 L7.05745455,16.0294118 Z" id="Shape" fill="#4F2984" fill-rule="nonzero"></path>
                        <path d="M40.192,9.95882353 L37.7832727,23.6 C37.5214545,24.9823529 37.6727273,25.8470588 38.9469091,25.8470588 C39.5122475,25.8294846 40.0731988,25.7405605 40.6167273,25.5823529 L40.0349091,28.9588235 C38.9653309,29.3650395 37.8372127,29.591562 36.6952727,29.6294118 C34.9498182,29.6294118 33.9141818,28.8470588 33.5825455,27.1941176 C32.0594112,28.8304334 29.909437,29.7187912 27.6887273,29.6294118 C23.4298182,29.6294118 20.9803636,26.8588235 21.8356364,21.9470588 L22.6909091,17.0588235 C23.5461818,12.1470588 26.3970909,9.6 30.6618182,9.6 C33.1054545,9.6 35.0370909,10.4235294 36.0378182,12.0705882 L36.9978182,9.97647059 L40.192,9.95882353 Z M25.92,22.2470588 C25.5127273,24.6 26.9207273,26.0352941 29.0734545,26.0352941 C31.5470159,26.0739543 33.6609337,24.2420402 34.0014545,21.7647059 L34.816,17.1529412 C35.264,14.7176471 33.5941818,13.1823529 31.1098182,13.1823529 C28.6254545,13.1823529 27.2930909,14.4176471 26.8858182,16.7117647 L25.92,22.2470588 Z" id="Shape" fill="#4F2984" fill-rule="nonzero"></path>
                        <polygon id="Path" fill="#4F2984" fill-rule="nonzero" points="47.0690909 1.52352941 51.2 1.52352941 46.3825455 29.2588235 42.2690909 29.2588235"></polygon>
                        <path d="M59.8109091,9.95882353 L65.1112727,9.95882353 L64.4770909,13.5294118 L59.1767273,13.5294118 L55.1389091,36.7294118 L51.0254545,36.7294118 L55.0283636,13.5294118 L51.3221818,13.5294118 L51.9505455,9.93529412 L55.6567273,9.93529412 L55.9185455,8.39411765 C56.8785455,3.03529412 58.9963636,0.158823529 66.5949091,1.42352941 L66.0130909,4.83529412 C61.824,4.42352941 60.672,5.02352941 60.1192727,8.21176471 L59.8109091,9.95882353 Z" id="Path" fill="#4F2984" fill-rule="nonzero"></path>
                        <path d="M80.5410909,22.1 C79.6858182,27.0470588 76.3112727,29.6294118 71.3832727,29.6294118 C66.4552727,29.6294118 63.4530909,27.1235294 64.3025455,22.1764706 L65.1927273,17.0588235 C66.048,12.1117647 69.4167273,9.6 74.3505455,9.6 C79.2843636,9.6 82.2807273,12.0941176 81.4545455,17.0588235 L80.5410909,22.1 Z M77.3818182,16.7411765 C77.824,14.3058824 76.4509091,13.2117647 74.0421818,13.2117647 C71.6334545,13.2117647 69.8530909,14.3882353 69.3876364,16.7411765 L68.3869091,22.4352941 C67.9389091,24.8705882 69.3527273,26.0352941 71.7207273,26.0352941 C74.0887273,26.0352941 75.9505455,24.8 76.3752727,22.4 L77.3818182,16.7411765 Z" id="Shape" fill="#4F2984" fill-rule="nonzero"></path>
                        <path d="M85.9229091,29.2588235 L81.8036364,29.2588235 L85.1432727,9.95882353 L88.2909091,9.95882353 L88.5527273,12.2411765 C90.6298182,10.1058824 91.8749091,9.95882353 96.5410909,9.95882353 L95.872,13.5294118 C91.4676364,13.5294118 88.512,14.2823529 88.0349091,17.0588235 L85.9229091,29.2588235 Z" id="Path" fill="#4F2984" fill-rule="nonzero"></path>
                        <polygon id="Path" fill="#4F2984" fill-rule="nonzero" points="108.660364 13.5294118 98.3563636 13.5294118 98.9847273 9.93529412 114.408727 9.93529412 113.774545 13.5294118 101.393455 25.6588235 111.662545 25.6588235 111.080727 29.2588235 95.6509091 29.2588235 96.2792727 25.6588235"></polygon>
                        <polygon id="Path" fill="#4F2984" fill-rule="nonzero" points="117.556364 9.95882353 121.710545 9.95882353 118.336 29.2588235 114.222545 29.2588235"></polygon>
                        <path d="M140.398545,9.95882353 L137.989818,23.6 C137.728,24.9823529 137.879273,25.8470588 139.153455,25.8470588 C139.716878,25.829426 140.275898,25.7404983 140.817455,25.5823529 L140.235636,28.9588235 C139.168158,29.365331 138.041904,29.5918738 136.901818,29.6294118 C135.156364,29.6294118 134.120727,28.8470588 133.789091,27.1941176 C132.265068,28.8291253 130.11571,29.7172285 127.895273,29.6294118 C123.630545,29.6294118 121.186909,26.8588235 122.036364,21.9470588 L122.903273,17.0588235 C123.752727,12.1470588 126.609455,9.6 130.868364,9.6 C133.317818,9.6 135.243636,10.4235294 136.244364,12.0705882 L137.210182,9.97647059 L140.398545,9.95882353 Z M126.126545,22.2470588 C125.719273,24.6 127.127273,26.0352941 129.28,26.0352941 C131.753561,26.0739543 133.867479,24.2420402 134.208,21.7647059 L135.022545,17.1529412 C135.464727,14.7176471 133.800727,13.1823529 131.316364,13.1823529 C128.832,13.1823529 127.499636,14.4176471 127.092364,16.7117647 L126.126545,22.2470588 Z" id="Shape" fill="#4F2984" fill-rule="nonzero"></path>
                        <polygon id="Path" fill="#5FC5BF" fill-rule="nonzero" points="152.866909 58.6470588 155.869091 58.6470588 155.869091 59.0470588 154.594909 59.0470588 154.321455 62.5352941 153.867636 62.5352941 154.135273 59.0470588 152.866909 59.0470588"></polygon>
                        <polygon id="Path" fill="#5FC5BF" fill-rule="nonzero" points="158.999273 59.5529412 157.614545 61.8235294 156.590545 59.5529412 156.357818 62.5352941 155.927273 62.5352941 156.229818 58.6470588 156.672 58.6470588 157.707636 60.9470588 159.109818 58.6470588 159.552 58.6470588 159.243636 62.5352941 158.795636 62.5352941"></polygon>
                        <rect id="Rectangle" x="149.76" y="58.6470588" width="3.19418182" height="3.22941176"></rect>
                    </g>
                </g>
            </g>
        </g>
    </g>
</svg>